<svg width="210" height="201" viewBox="0 0 210 201" fill="none" xmlns="http://www.w3.org/2000/svg">
<path d="M104.999 0L135.265 35.1562H74.7329L104.999 0Z" fill="url(#paint0_linear_5_66)"/>
<path d="M105.001 200.625L74.7353 165.469L135.267 165.469L105.001 200.625Z" fill="url(#paint1_linear_5_66)"/>
<g filter="url(#filter0_f_5_66)">
<path d="M104.168 9L107.675 19.5822L118.336 23.0625L107.675 26.5428L104.168 37.125L100.662 26.5428L90 23.0625L100.662 19.5822L104.168 9Z" fill="white"/>
<path d="M104.168 9.31793L107.58 19.6137L107.596 19.6616L107.644 19.6773L118.014 23.0625L107.644 26.4477L107.596 26.4634L107.58 26.5113L104.168 36.8071L100.757 26.5113L100.741 26.4634L100.693 26.4477L90.3223 23.0625L100.693 19.6773L100.741 19.6616L100.757 19.6137L104.168 9.31793Z" stroke="#3E74FF" stroke-width="0.2"/>
</g>
<path d="M192.526 150.469L146.718 158.906L176.984 106.875L192.526 150.469Z" fill="url(#paint2_linear_5_66)"/>
<path d="M17.474 50.1562L63.2819 41.7187L33.016 93.7499L17.474 50.1562Z" fill="url(#paint3_linear_5_66)"/>
<path d="M192.525 50.156L176.983 93.7498L146.717 41.7185L192.525 50.156Z" fill="url(#paint4_linear_5_66)"/>
<path d="M17.4752 150.469L33.0171 106.875L63.283 158.907L17.4752 150.469Z" fill="url(#paint5_linear_5_66)"/>
<path d="M182.897 99.375C182.897 141.552 148.448 175.75 105.945 175.75C63.4417 175.75 28.9924 141.552 28.9924 99.375C28.9924 57.1978 63.4417 23 105.945 23C148.448 23 182.897 57.1978 182.897 99.375Z" fill="url(#paint6_linear_5_66)" stroke="url(#paint7_linear_5_66)"/>
<g filter="url(#filter1_i_5_66)">
<ellipse cx="105.944" cy="99.375" rx="68.007" ry="67.5" fill="url(#paint8_linear_5_66)"/>
</g>
<g filter="url(#filter2_ii_5_66)">
<ellipse cx="105.944" cy="99.375" rx="56.6725" ry="56.25" fill="url(#paint9_linear_5_66)"/>
</g>
<g filter="url(#filter3_d_5_66)">
<path d="M72.4785 89.7675C71.4702 87.0589 74.4988 84.631 76.9232 86.2044L122.272 115.635C124.778 117.261 123.627 121.151 120.639 121.151H86.2452C84.992 121.151 83.8709 120.372 83.4337 119.198L72.4785 89.7675Z" fill="url(#paint10_linear_5_66)"/>
<path d="M139.401 89.7312C140.42 87.0291 137.407 84.589 134.975 86.1469L88.9698 115.625C86.4468 117.242 87.5918 121.151 90.5883 121.151H125.48C126.729 121.151 127.847 120.378 128.287 119.21L139.401 89.7312Z" fill="url(#paint11_linear_5_66)"/>
<path d="M103.258 78.9506C104.355 76.7091 107.55 76.7091 108.647 78.9506L127.38 117.223C128.356 119.216 126.905 121.542 124.686 121.542H87.2191C85 121.542 83.549 119.216 84.5246 117.223L103.258 78.9506Z" fill="url(#paint12_linear_5_66)"/>
<mask id="mask0_5_66" style="mask-type:alpha" maskUnits="userSpaceOnUse" x="84" y="77" width="44" height="45">
<path d="M103.258 78.9506C104.355 76.7091 107.55 76.7091 108.647 78.9506L127.38 117.223C128.356 119.216 126.905 121.542 124.686 121.542H87.2191C85 121.542 83.549 119.216 84.5246 117.223L103.258 78.9506Z" fill="url(#paint13_linear_5_66)"/>
</mask>
<g mask="url(#mask0_5_66)">
<g filter="url(#filter4_f_5_66)">
<ellipse cx="24.6569" cy="6.69153" rx="24.6569" ry="6.69153" transform="matrix(0.204188 0.978932 -0.979534 0.201279 121.22 79.4809)" fill="#7BB0FF"/>
</g>
</g>
<ellipse cx="105.953" cy="69.9263" rx="4.33362" ry="4.30132" fill="url(#paint14_linear_5_66)"/>
<ellipse cx="71.708" cy="82.4391" rx="3.54569" ry="3.51926" fill="url(#paint15_linear_5_66)"/>
<ellipse cx="140.016" cy="82.4391" rx="3.54569" ry="3.51926" fill="url(#paint16_linear_5_66)"/>
<rect x="83.9861" y="124.935" width="43.102" height="5.83373" rx="2.91686" fill="url(#paint17_linear_5_66)"/>
</g>
<path d="M75.718 50.625L77.1206 54.8578L81.3853 56.25L77.1206 57.6421L75.718 61.875L74.3155 57.6421L70.0508 56.25L74.3155 54.8578L75.718 50.625Z" fill="white"/>
<path d="M58.717 31.875L61.9897 41.7518L71.9406 45L61.9897 48.2483L58.717 58.125L55.4443 48.2483L45.4934 45L55.4443 41.7518L58.717 31.875Z" fill="white"/>
<defs>
<filter id="filter0_f_5_66" x="85" y="4" width="38.3363" height="38.125" filterUnits="userSpaceOnUse" color-interpolation-filters="sRGB">
<feFlood flood-opacity="0" result="BackgroundImageFix"/>
<feBlend mode="normal" in="SourceGraphic" in2="BackgroundImageFix" result="shape"/>
<feGaussianBlur stdDeviation="2.5" result="effect1_foregroundBlur_5_66"/>
</filter>
<filter id="filter1_i_5_66" x="37.9375" y="29.875" width="136.014" height="137" filterUnits="userSpaceOnUse" color-interpolation-filters="sRGB">
<feFlood flood-opacity="0" result="BackgroundImageFix"/>
<feBlend mode="normal" in="SourceGraphic" in2="BackgroundImageFix" result="shape"/>
<feColorMatrix in="SourceAlpha" type="matrix" values="0 0 0 0 0 0 0 0 0 0 0 0 0 0 0 0 0 0 127 0" result="hardAlpha"/>
<feOffset dy="-2"/>
<feGaussianBlur stdDeviation="2"/>
<feComposite in2="hardAlpha" operator="arithmetic" k2="-1" k3="1"/>
<feColorMatrix type="matrix" values="0 0 0 0 0 0 0 0 0 0.172667 0 0 0 0 0.616667 0 0 0 0.15 0"/>
<feBlend mode="normal" in2="shape" result="effect1_innerShadow_5_66"/>
</filter>
<filter id="filter2_ii_5_66" x="49.272" y="41.125" width="113.345" height="116.5" filterUnits="userSpaceOnUse" color-interpolation-filters="sRGB">
<feFlood flood-opacity="0" result="BackgroundImageFix"/>
<feBlend mode="normal" in="SourceGraphic" in2="BackgroundImageFix" result="shape"/>
<feColorMatrix in="SourceAlpha" type="matrix" values="0 0 0 0 0 0 0 0 0 0 0 0 0 0 0 0 0 0 127 0" result="hardAlpha"/>
<feOffset dy="2"/>
<feGaussianBlur stdDeviation="5"/>
<feComposite in2="hardAlpha" operator="arithmetic" k2="-1" k3="1"/>
<feColorMatrix type="matrix" values="0 0 0 0 0 0 0 0 0 0.193203 0 0 0 0 0.4875 0 0 0 1 0"/>
<feBlend mode="normal" in2="shape" result="effect1_innerShadow_5_66"/>
<feColorMatrix in="SourceAlpha" type="matrix" values="0 0 0 0 0 0 0 0 0 0 0 0 0 0 0 0 0 0 127 0" result="hardAlpha"/>
<feOffset dy="-2"/>
<feGaussianBlur stdDeviation="5"/>
<feComposite in2="hardAlpha" operator="arithmetic" k2="-1" k3="1"/>
<feColorMatrix type="matrix" values="0 0 0 0 0.4375 0 0 0 0 0.62875 0 0 0 0 1 0 0 0 1 0"/>
<feBlend mode="normal" in2="effect1_innerShadow_5_66" result="effect2_innerShadow_5_66"/>
</filter>
<filter id="filter3_d_5_66" x="64.1624" y="63.625" width="83.3998" height="73.1433" filterUnits="userSpaceOnUse" color-interpolation-filters="sRGB">
<feFlood flood-opacity="0" result="BackgroundImageFix"/>
<feColorMatrix in="SourceAlpha" type="matrix" values="0 0 0 0 0 0 0 0 0 0 0 0 0 0 0 0 0 0 127 0" result="hardAlpha"/>
<feOffset dy="2"/>
<feGaussianBlur stdDeviation="2"/>
<feComposite in2="hardAlpha" operator="out"/>
<feColorMatrix type="matrix" values="0 0 0 0 0.111875 0 0 0 0 0.364131 0 0 0 0 0.745833 0 0 0 0.68 0"/>
<feBlend mode="normal" in2="BackgroundImageFix" result="effect1_dropShadow_5_66"/>
<feBlend mode="normal" in="SourceGraphic" in2="effect1_dropShadow_5_66" result="shape"/>
</filter>
<filter id="filter4_f_5_66" x="105.435" y="74.7895" width="28.5309" height="60.3512" filterUnits="userSpaceOnUse" color-interpolation-filters="sRGB">
<feFlood flood-opacity="0" result="BackgroundImageFix"/>
<feBlend mode="normal" in="SourceGraphic" in2="BackgroundImageFix" result="shape"/>
<feGaussianBlur stdDeviation="3" result="effect1_foregroundBlur_5_66"/>
</filter>
<linearGradient id="paint0_linear_5_66" x1="92.4175" y1="14.0625" x2="117.58" y2="14.0625" gradientUnits="userSpaceOnUse">
<stop offset="0.488759" stop-color="#E3EBFF"/>
<stop offset="0.488859" stop-color="#D1E5EE"/>
<stop offset="0.488959" stop-color="#B3C2D9"/>
</linearGradient>
<linearGradient id="paint1_linear_5_66" x1="117.582" y1="186.562" x2="92.4199" y2="186.562" gradientUnits="userSpaceOnUse">
<stop offset="0.488759" stop-color="#E3EBFF"/>
<stop offset="0.488859" stop-color="#D1E5EE"/>
<stop offset="0.488959" stop-color="#B3C2D9"/>
</linearGradient>
<linearGradient id="paint2_linear_5_66" x1="186.547" y1="132.623" x2="174.106" y2="154.333" gradientUnits="userSpaceOnUse">
<stop offset="0.488759" stop-color="#E3EBFF"/>
<stop offset="0.488859" stop-color="#D1E5EE"/>
<stop offset="0.488959" stop-color="#B3C2D9"/>
</linearGradient>
<linearGradient id="paint3_linear_5_66" x1="23.4533" y1="68.0019" x2="35.8939" y2="46.2923" gradientUnits="userSpaceOnUse">
<stop offset="0.488759" stop-color="#E3EBFF"/>
<stop offset="0.488859" stop-color="#D1E5EE"/>
<stop offset="0.488959" stop-color="#B3C2D9"/>
</linearGradient>
<linearGradient id="paint4_linear_5_66" x1="173.964" y1="46.3728" x2="186.405" y2="68.0824" gradientUnits="userSpaceOnUse">
<stop offset="0.488759" stop-color="#E3EBFF"/>
<stop offset="0.488859" stop-color="#D1E5EE"/>
<stop offset="0.488959" stop-color="#B3C2D9"/>
</linearGradient>
<linearGradient id="paint5_linear_5_66" x1="36.0358" y1="154.252" x2="23.5952" y2="132.543" gradientUnits="userSpaceOnUse">
<stop offset="0.488759" stop-color="#E3EBFF"/>
<stop offset="0.488859" stop-color="#D1E5EE"/>
<stop offset="0.488959" stop-color="#B3C2D9"/>
</linearGradient>
<linearGradient id="paint6_linear_5_66" x1="56.2959" y1="42.2116" x2="158.71" y2="157.3" gradientUnits="userSpaceOnUse">
<stop stop-color="#D5E3FF"/>
<stop offset="0.520833" stop-color="#F0F5FF"/>
<stop offset="1" stop-color="#D0DFFE"/>
</linearGradient>
<linearGradient id="paint7_linear_5_66" x1="105.945" y1="22.5" x2="105.945" y2="176.25" gradientUnits="userSpaceOnUse">
<stop stop-color="white" stop-opacity="0.5"/>
<stop offset="1" stop-color="white" stop-opacity="0"/>
</linearGradient>
<linearGradient id="paint8_linear_5_66" x1="62.4956" y1="47.8125" x2="148.624" y2="152.508" gradientUnits="userSpaceOnUse">
<stop stop-color="#B1CCFF"/>
<stop offset="1" stop-color="#D5E3FF"/>
</linearGradient>
<linearGradient id="paint9_linear_5_66" x1="68.4406" y1="53.0515" x2="114.535" y2="155.884" gradientUnits="userSpaceOnUse">
<stop stop-color="#78A6FF"/>
<stop offset="0.484375" stop-color="#376EC1"/>
<stop offset="1" stop-color="#1352B0"/>
</linearGradient>
<linearGradient id="paint10_linear_5_66" x1="73.0414" y1="92.606" x2="95.9236" y2="109.373" gradientUnits="userSpaceOnUse">
<stop stop-color="#90BDFF"/>
<stop offset="1" stop-color="#408CFF"/>
</linearGradient>
<linearGradient id="paint11_linear_5_66" x1="136.47" y1="87.7633" x2="122.689" y2="112.756" gradientUnits="userSpaceOnUse">
<stop stop-color="#90BDFF"/>
<stop offset="1" stop-color="#408CFF"/>
</linearGradient>
<linearGradient id="paint12_linear_5_66" x1="93.9089" y1="98.2041" x2="118.34" y2="98.2041" gradientUnits="userSpaceOnUse">
<stop offset="0.49728" stop-color="#90BDFF"/>
<stop offset="0.49738" stop-color="#408CFF"/>
</linearGradient>
<linearGradient id="paint13_linear_5_66" x1="93.9089" y1="98.2041" x2="118.34" y2="98.2041" gradientUnits="userSpaceOnUse">
<stop offset="0.416667" stop-color="#B1B0D8"/>
<stop offset="0.49738" stop-color="#FFCC1D"/>
</linearGradient>
<linearGradient id="paint14_linear_5_66" x1="105.953" y1="65.625" x2="105.953" y2="74.2276" gradientUnits="userSpaceOnUse">
<stop stop-color="#B0C6FF"/>
<stop offset="1" stop-color="#408CFF"/>
</linearGradient>
<linearGradient id="paint15_linear_5_66" x1="71.708" y1="78.9199" x2="71.708" y2="85.9584" gradientUnits="userSpaceOnUse">
<stop stop-color="#B0C6FF"/>
<stop offset="1" stop-color="#408CFF"/>
</linearGradient>
<linearGradient id="paint16_linear_5_66" x1="140.016" y1="78.9199" x2="140.016" y2="85.9584" gradientUnits="userSpaceOnUse">
<stop stop-color="#B0C6FF"/>
<stop offset="1" stop-color="#408CFF"/>
</linearGradient>
<linearGradient id="paint17_linear_5_66" x1="84.4759" y1="127.851" x2="127.578" y2="127.851" gradientUnits="userSpaceOnUse">
<stop stop-color="#90BDFF"/>
<stop offset="1" stop-color="#458FFF"/>
</linearGradient>
</defs>
</svg>
