<?xml version="1.0" encoding="utf-8"?>
<!-- Generator: Adobe Illustrator 23.0.3, SVG Export Plug-In . SVG Version: 6.00 Build 0)  -->
<svg version="1.1" id="Layer_1" xmlns="http://www.w3.org/2000/svg" xmlns:xlink="http://www.w3.org/1999/xlink" x="0px" y="0px"
	 viewBox="0 0 512 512" style="enable-background:new 0 0 512 512;" xml:space="preserve">
<style type="text/css">
	.st0{fill:#E6E7E8;stroke:#231F20;stroke-width:18;stroke-miterlimit:10;}
	.st1{fill:#231F20;}
	.st2{fill:#D7DF23;stroke:#231F20;stroke-width:18;stroke-miterlimit:10;}
</style>
<path class="st2" d="M459.89,285.75c-13.06,89.97-84.17,161.08-174.14,174.07c1.38-9.7,2.11-19.59,2.11-29.68
	c0-113.78-92.22-206-206-206c-10.09,0-19.99,0.73-29.68,2.11c12.99-89.97,84.1-161.08,174.07-174.14
	c-1.39,9.7-2.11,19.66-2.11,29.75c0,113.78,92.22,206,206,206C440.23,287.86,450.19,287.13,459.89,285.75z"/>
<path class="st0" d="M462,256c0,10.09-0.73,20.05-2.11,29.75c-9.7,1.39-19.66,2.11-29.75,2.11c-113.78,0-206-92.22-206-206
	c0-10.09,0.73-20.05,2.11-29.75C235.95,50.73,245.91,50,256,50c7.32,0,14.51,0.4,21.57,1.12c-1.85,9.56-2.77,19.46-2.77,29.55
	c0,88.52,71.77,160.22,160.22,160.22c8.97,0,17.74-0.73,26.25-2.18C461.74,244.39,462,250.2,462,256z"/>
<path class="st2" d="M461.27,238.72c-8.51,1.45-17.28,2.18-26.25,2.18c-88.46,0-160.22-71.7-160.22-160.22
	c0-10.09,0.92-19.99,2.77-29.55C375.52,61.35,453.1,140.17,461.27,238.72z"/>
<path class="st0" d="M287.86,430.14c0,10.09-0.73,19.99-2.11,29.68c-0.33,0.07-0.73,0.13-1.12,0.2c-2.64,0.4-5.34,0.73-8.05,0.92
	c-1.12,0.13-2.31,0.26-3.43,0.33c-1.52,0.13-3.03,0.26-4.55,0.33c-1.45,0.13-2.9,0.2-4.42,0.2c-2.7,0.13-5.41,0.2-8.18,0.2
	c-4.16,0-8.31-0.13-12.4-0.4c-1.32-0.07-2.57-0.13-3.83-0.26c-1.78-0.13-3.56-0.26-5.34-0.46c1.85-9.56,2.77-19.46,2.77-29.55
	c0-88.52-71.77-160.22-160.22-160.22c-8.97,0-17.74,0.73-26.25,2.18c-0.2-2.84-0.4-5.74-0.53-8.58c-0.13-2.9-0.2-5.8-0.2-8.71
	c0-2.77,0.07-5.47,0.2-8.18c0-1.52,0.07-2.97,0.2-4.42c0.07-1.52,0.2-3.03,0.33-4.49c0.07-1.19,0.2-2.31,0.33-3.5
	c0.2-2.7,0.53-5.41,0.92-8.05c0.07-0.4,0.13-0.79,0.2-1.12c9.7-1.38,19.59-2.11,29.68-2.11
	C195.64,224.14,287.86,316.36,287.86,430.14z"/>
<path class="st2" d="M237.2,431.33c0,10.09-0.92,19.99-2.77,29.55c-2.51-0.26-5.01-0.59-7.45-0.92c-6.79-0.92-13.52-2.24-20.05-3.83
	c-1.91-0.46-3.83-0.99-5.74-1.52c-0.53-0.13-1.06-0.26-1.58-0.46c-1.25-0.33-2.44-0.66-3.63-1.06c-1.98-0.59-3.89-1.19-5.74-1.85
	c-1.72-0.53-3.43-1.12-5.08-1.78c-14.45-5.28-28.1-12.14-40.83-20.38c-1.19-0.73-2.37-1.52-3.5-2.31c-0.2-0.13-0.4-0.26-0.59-0.4
	c-1.65-1.12-3.23-2.24-4.82-3.36c-6.53-4.75-12.8-9.83-18.73-15.37c-0.92-0.79-1.85-1.65-2.77-2.57
	c-3.96-3.69-7.72-7.59-11.35-11.61c-1.78-2.04-3.63-4.16-5.34-6.27l-0.2-0.2c-1.52-1.85-2.97-3.69-4.49-5.61
	c-0.66-0.92-1.38-1.85-2.04-2.84c-1.38-1.72-2.64-3.5-3.89-5.34c-0.46-0.66-0.92-1.32-1.39-2.04c-1.19-1.72-2.31-3.5-3.43-5.28
	c-1.58-2.37-3.03-4.88-4.49-7.39c0,0-0.07-0.07-0.07-0.13c-1.45-2.51-2.9-5.08-4.22-7.72c-0.2-0.26-0.33-0.59-0.46-0.86
	c-1.19-2.31-2.37-4.68-3.43-7.06c-1.06-2.18-1.98-4.35-2.9-6.53c-0.33-0.73-0.66-1.52-0.92-2.24c-0.99-2.37-1.91-4.75-2.77-7.12
	c-0.13-0.33-0.26-0.59-0.33-0.92c-0.73-2.04-1.45-4.09-2.11-6.13c-0.26-0.86-0.59-1.65-0.79-2.51c-0.92-2.9-1.72-5.74-2.51-8.64
	c-0.66-2.51-1.25-5.08-1.85-7.59c-0.79-3.63-1.52-7.26-2.11-10.88c-0.92-5.54-1.65-11.21-2.11-16.89
	c8.51-1.45,17.28-2.18,26.25-2.18C165.43,271.11,237.2,342.81,237.2,431.33z"/>
</svg>
