<?xml version="1.0" encoding="UTF-8" standalone="no"?> <svg width="48" height="48" viewBox="0 0 48 48" fill="none" xmlns="http://www.w3.org/2000/svg">
<path d="M24 45C35.598 45 45 35.598 45 24C45 12.402 35.598 3 24 3C12.402 3 3 12.402 3 24C3 35.598 12.402 45 24 45Z" fill="#F87600"/>
<path d="M28 40.0002C23.9744 40.0044 20.0414 38.7924 16.7164 36.523C13.3913 34.2537 10.8294 31.0328 9.36632 27.2825C7.90322 23.5321 7.60718 19.4273 8.517 15.5058C9.42682 11.5843 11.5001 8.02914 14.465 5.30615C11.5127 6.80932 8.95801 8.99001 7.01007 11.6699C5.06212 14.3497 3.77618 17.4526 3.25744 20.7247C2.73869 23.9969 3.00187 27.3454 4.02545 30.4963C5.04903 33.6472 6.80393 36.5111 9.14663 38.8537C11.4893 41.1964 14.3533 42.9512 17.5042 43.9746C20.6552 44.9981 24.0037 45.2612 27.2758 44.7423C30.548 44.2234 33.6508 42.9374 36.3306 40.9893C39.0104 39.0413 41.191 36.4866 42.694 33.5342C40.8273 35.5722 38.5569 37.1996 36.0272 38.3128C33.4975 39.4259 30.7638 40.0006 28 40.0002Z" fill="#E55C00"/>
<path d="M24 2C19.6488 2 15.3953 3.29028 11.7775 5.70767C8.15958 8.12506 5.33979 11.561 3.67466 15.581C2.00953 19.6009 1.57386 24.0244 2.42273 28.292C3.27161 32.5596 5.36691 36.4796 8.44366 39.5564C11.5204 42.6331 15.4404 44.7284 19.708 45.5773C23.9756 46.4261 28.3991 45.9905 32.419 44.3253C36.439 42.6602 39.875 39.8404 42.2923 36.2225C44.7097 32.6047 46 28.3512 46 24C45.9934 18.1673 43.6734 12.5753 39.5491 8.45096C35.4247 4.32659 29.8327 2.00662 24 2V2ZM39.535 36.57C38.9637 35.4763 38.2943 34.4367 37.535 33.464C35.928 31.292 34.29 29.028 34.049 25H43.949C43.7471 29.2283 42.2007 33.2817 39.535 36.57V36.57ZM4.05101 25H13.951C13.71 29.028 12.072 31.292 10.466 33.464C9.70674 34.4367 9.03733 35.4763 8.46601 36.57C5.79997 33.2818 4.25323 29.2284 4.05101 25V25ZM8.46501 11.43C9.03637 12.5237 9.70578 13.5633 10.465 14.536C12.071 16.708 13.708 18.972 13.949 23H4.04901C4.25151 18.7715 5.79861 14.7181 8.46501 11.43V11.43ZM25 23V4.051C29.9108 4.28804 34.5606 6.33244 38.055 9.791C37.521 11.0732 36.8035 12.2711 35.925 13.347C34.2 15.675 32.268 18.3 32.026 23H25ZM23 23H15.974C15.732 18.3 13.796 15.675 12.074 13.347C11.1955 12.2711 10.478 11.0732 9.94401 9.791C13.4387 6.33222 18.0888 4.2878 23 4.051V23ZM12.075 34.653C13.796 32.325 15.732 29.705 15.975 25H23V43.949C18.0892 43.712 13.4394 41.6676 9.94501 38.209C10.479 36.9268 11.1965 35.7289 12.075 34.653V34.653ZM25 25H32.026C32.268 29.7 34.204 32.325 35.926 34.653C36.8045 35.7289 37.522 36.9268 38.056 38.209C34.5614 41.6678 29.9112 43.7122 25 43.949V25ZM34.049 23C34.29 18.972 35.927 16.708 37.533 14.536C38.2922 13.5633 38.9617 12.5237 39.533 11.43C42.1994 14.7181 43.7465 18.7715 43.949 23H34.049Z" fill="black"/>
</svg>
