<?xml version="1.0" encoding="UTF-8"?>
<!DOCTYPE svg PUBLIC "-//W3C//DTD SVG 1.1//EN" "http://www.w3.org/Graphics/SVG/1.1/DTD/svg11.dtd">
<!-- Creator: CorelDRAW -->
<svg xmlns="http://www.w3.org/2000/svg" xml:space="preserve" width="1.70666in" height="1.70666in" version="1.1" style="shape-rendering:geometricPrecision; text-rendering:geometricPrecision; image-rendering:optimizeQuality; fill-rule:evenodd; clip-rule:evenodd"
viewBox="0 0 1706.66 1706.66"
 xmlns:xlink="http://www.w3.org/1999/xlink"
 xmlns:xodm="http://www.corel.com/coreldraw/odm/2003">
 <defs>
  <style type="text/css">
   <![CDATA[
    .fil3 {fill:black}
    .fil1 {fill:#FA3C48}
    .fil0 {fill:#FF9621}
    .fil2 {fill:#FFB800}
   ]]>
  </style>
 </defs>
 <g id="Layer_x0020_1">
  <metadata id="CorelCorpID_0Corel-Layer"/>
  <path class="fil0" d="M390.6 804.24c-14.64,0 -24.62,-15.6 -17.83,-29.03l81.89 -161.93c8.99,-17.74 31.48,-11.8 36.89,2.27l41.25 -13.24c0.48,-13.97 16.36,-27.15 31.52,-16.56l144.83 101.37c15.43,10.81 8.47,34.61 -9.48,36.28l-96.5 167.35 -200.69 -90.43c-3.44,2.53 -7.62,3.91 -11.88,3.91z"/>
  <path class="fil0" d="M1317.28 804.24c-6.2,0 -12.22,-2.91 -16.06,-8.07l-204.28 103.97 -86.75 -176.63c-19.38,-0.02 -27.48,-25.17 -11.46,-36.38l144.83 -101.37c16.11,-11.27 33,4.27 31.46,19.11l40.66 12.75c3.89,-15.52 28.16,-22.9 37.56,-4.35l81.89 161.93c6.78,13.41 -3.2,29.04 -17.84,29.04z"/>
  <path class="fil1" d="M501.04 649.11c-109.54,0 -109.54,-166.46 0,-166.46 109.55,0 109.55,166.46 0,166.46z"/>
  <path class="fil1" d="M1206.83 649.11c-109.55,0 -109.55,-166.46 0,-166.46 109.56,0 109.57,166.46 0,166.46z"/>
  <path class="fil2" d="M284.16 1198.23c-8.37,0 -16.17,-5.29 -18.97,-13.65l-159.24 -475.58c-6.8,-20.33 17.09,-32.54 30.71,-22.87l15.31 -15.31c-6.49,-15.13 9.72,-35.89 28.29,-25.57l408.56 226.98 214.78 -425.35c8.89,-17.63 31.18,-11.91 36.8,1.95l25.85 0c5.61,-13.87 27.89,-19.59 36.79,-1.95l214.79 425.35 408.57 -226.98c19.66,-10.93 36.71,13.02 26.89,28.2l13.65 13.65c13.35,-11.38 38.95,0.96 31.92,21.91l-159.24 475.57c-5.66,16.93 -29.16,18.52 -37,2.25l-1100.43 0c-3.19,6.62 -9.94,11.4 -18.03,11.4z"/>
  <path class="fil0" d="M1400.47 1424.83l-1094.3 0c-55.32,0 -100.32,-45.01 -100.32,-100.33l0 -71.53c0,-55.3 45,-100.33 100.32,-100.33l1094.3 0c55.31,0 100.33,45.01 100.33,100.33l0 71.52c0,55.31 -45.01,100.33 -100.33,100.33z"/>
  <path class="fil1" d="M853.32 482.47c-55.3,0 -100.31,-45 -100.31,-100.31 0,-55.31 45,-100.32 100.31,-100.32 55.32,0 100.33,45 100.33,100.32 0,55.31 -45.03,100.31 -100.33,100.31z"/>
  <path class="fil1" d="M1606.31 724.05c-55.31,0 -100.32,-45 -100.32,-100.31 0,-55.32 45,-100.32 100.32,-100.32 55.31,0 100.33,45 100.33,100.32 0,55.31 -45.03,100.31 -100.33,100.31z"/>
  <path class="fil1" d="M100.33 724.05c-55.31,0 -100.32,-45 -100.32,-100.31 0,-55.32 45,-100.32 100.32,-100.32 55.31,0 100.31,45 100.31,100.32 0,55.31 -45,100.31 -100.31,100.31z"/>
  <polygon class="fil3" points="756.55,903 853.32,1034.86 950.1,903 853.32,771.14 "/>
  <path class="fil1" d="M853.32 1088.66c-6.36,0 -12.36,-3.04 -16.13,-8.18l-121.58 -165.67c-5.17,-7.04 -5.17,-16.61 0,-23.65l121.58 -165.67c7.54,-10.26 24.71,-10.26 32.25,0l121.58 165.67c5.17,7.04 5.17,16.61 0,23.65l-121.58 165.67c-3.76,5.15 -9.76,8.18 -16.13,8.18z"/>
  <path class="fil1" d="M1300.1 1076.12c-95.71,0 -95.67,-145.43 0,-145.43 95.69,0 95.72,145.43 0,145.43z"/>
  <path class="fil1" d="M406.54 1076.12c-95.7,0 -95.67,-145.43 0,-145.43 95.67,0 95.71,145.43 0,145.43z"/>
  <path class="fil1" d="M361.28 1340.48c-28.25,0 -20,-42.94 -20,-83.48 0,-26.33 40,-26.32 40,0 0,40.61 8.25,83.48 -20,83.48z"/>
  <path class="fil1" d="M525.31 1340.48c-28.24,0 -20,-42.94 -20,-83.48 0,-26.33 40,-26.32 40,0 0,40.57 8.25,83.48 -20,83.48z"/>
  <path class="fil1" d="M689.31 1340.48c-28.25,0 -20,-42.94 -20,-83.48 0,-26.33 40,-26.32 40,0 0,40.58 8.25,83.48 -20,83.48z"/>
  <path class="fil1" d="M853.32 1340.48c-28.24,0 -20,-42.94 -20,-83.48 0,-26.33 40,-26.32 40,0 0,40.57 8.25,83.48 -20,83.48z"/>
  <path class="fil1" d="M1017.35 1340.48c-28.25,0 -20,-42.94 -20,-83.48 0,-26.33 40,-26.32 40,0 0,40.55 8.24,83.48 -20,83.48z"/>
  <path class="fil1" d="M1181.35 1340.48c-28.24,0 -20,-42.94 -20,-83.48 0,-26.33 40,-26.32 40,0 0,40.61 8.25,83.48 -20,83.48z"/>
  <path class="fil1" d="M1345.37 1340.48c-28.24,0 -20,-42.94 -20,-83.48 0,-26.33 40,-26.32 40,0 0,40.57 8.25,83.48 -20,83.48z"/>
 </g>
</svg>
