<svg width="570" height="745" viewBox="0 0 570 745" fill="none" xmlns="http://www.w3.org/2000/svg">
<rect x="215" y="269" width="140" height="103" fill="url(#paint0_linear_11_466)" stroke="url(#paint1_linear_11_466)" stroke-width="6"/>
<circle cx="284.5" cy="536.5" r="208.5" fill="url(#paint2_linear_11_466)"/>
<circle cx="284.5" cy="536.5" r="166" fill="url(#paint3_linear_11_466)" stroke="url(#paint4_linear_11_466)"/>
<g filter="url(#filter0_ii_11_466)">
<circle cx="284.5" cy="536.5" r="147.5" fill="url(#paint5_linear_11_466)"/>
</g>
<g filter="url(#filter1_di_11_466)">
<rect x="50" y="40" width="470" height="37" rx="18.5" fill="#4A5B74"/>
</g>
<rect x="85" y="58" width="402" height="4" rx="2" fill="#242D3A"/>
<path fill-rule="evenodd" clip-rule="evenodd" d="M141.965 245C140.937 148.626 117.123 70.4974 87 62.6486V62H487V62.0258C455.01 63.6768 429.108 144.398 428.035 245H141.965Z" fill="url(#paint6_linear_11_466)"/>
<rect x="195" y="62" width="20" height="183" fill="#E3EBF8"/>
<rect x="359" y="62" width="20" height="183" fill="#E3EBF8"/>
<path d="M141 224L285 252V308L141 280V224Z" fill="url(#paint7_linear_11_466)"/>
<g filter="url(#filter2_d_11_466)">
<path d="M141 213L285 241V297L141 269V213Z" fill="#354358"/>
</g>
<path d="M429 224L285 252V308L429 280V224Z" fill="url(#paint8_linear_11_466)"/>
<g filter="url(#filter3_d_11_466)">
<path d="M429 213L285 241V297L429 269V213Z" fill="#354358"/>
</g>
<path d="M141 217L285 245V301L141 273V217Z" fill="url(#paint9_linear_11_466)"/>
<path d="M429 217L285 245V301L429 273V217Z" fill="url(#paint10_linear_11_466)"/>
<path d="M285 630.556L185 524.297L223.194 469.444H346.806L385 524.297L285 630.556Z" fill="#1A1F29"/>
<path d="M244.236 524.297L285 630.556L185 524.297H244.236Z" fill="#1A1F29"/>
<path d="M185 524.297L223.194 469.444H346.806L385 524.297H185Z" fill="#1A1F29"/>
<path d="M185 524.297L223.194 469.444L244.236 524.297H185Z" fill="#1A1F29"/>
<path d="M223.194 469.444L285 630.556L346.805 469.444H223.194Z" fill="#1A1F29"/>
<path d="M244.236 524.297H325.764L285 469.444L244.236 524.297Z" fill="#1A1F29"/>
<path d="M244.236 524.297L223.197 469.444H285L244.236 524.297Z" fill="#1A1F29"/>
<path d="M285 630.556L244.236 524.297H325.764L285 630.556Z" fill="#1A1F29"/>
<g clip-path="url(#clip0_11_466)">
<path d="M252.093 525.066L284.5 609.542L205 525.066H252.093Z" fill="url(#paint11_linear_11_466)"/>
<path d="M317 525.5L334 481.5L284.5 481.458L317 525.5Z" fill="url(#paint12_linear_11_466)"/>
<path d="M316.407 525.066L284.5 609.5L364 525.066H316.407Z" fill="url(#paint13_linear_11_466)"/>
<path d="M251.729 524.816H205.479L235.3 481.988L251.729 524.816Z" fill="url(#paint14_linear_11_466)" stroke="url(#paint15_linear_11_466)" stroke-width="0.5"/>
<path d="M364.093 525.066L334 481.5L317 525.066H364.093Z" fill="url(#paint16_linear_11_466)"/>
<path d="M252.59 524.816L284.5 481.877L316.521 524.816H252.59Z" fill="url(#paint17_linear_11_466)" stroke="url(#paint18_linear_11_466)" stroke-width="0.5"/>
<path d="M252.093 525.066L235.367 481.458H284.5L252.093 525.066Z" fill="url(#paint19_linear_11_466)"/>
<path d="M316.544 525.316L284.5 608.844L252.456 525.316H316.544Z" fill="url(#paint20_linear_11_466)" stroke="url(#paint21_linear_11_466)" stroke-width="0.5"/>
</g>
<defs>
<filter id="filter0_ii_11_466" x="137" y="385" width="295" height="303" filterUnits="userSpaceOnUse" color-interpolation-filters="sRGB">
<feFlood flood-opacity="0" result="BackgroundImageFix"/>
<feBlend mode="normal" in="SourceGraphic" in2="BackgroundImageFix" result="shape"/>
<feColorMatrix in="SourceAlpha" type="matrix" values="0 0 0 0 0 0 0 0 0 0 0 0 0 0 0 0 0 0 127 0" result="hardAlpha"/>
<feOffset dy="-4"/>
<feGaussianBlur stdDeviation="5"/>
<feComposite in2="hardAlpha" operator="arithmetic" k2="-1" k3="1"/>
<feColorMatrix type="matrix" values="0 0 0 0 0 0 0 0 0 0 0 0 0 0 0 0 0 0 0.5 0"/>
<feBlend mode="normal" in2="shape" result="effect1_innerShadow_11_466"/>
<feColorMatrix in="SourceAlpha" type="matrix" values="0 0 0 0 0 0 0 0 0 0 0 0 0 0 0 0 0 0 127 0" result="hardAlpha"/>
<feOffset dy="4"/>
<feGaussianBlur stdDeviation="25"/>
<feComposite in2="hardAlpha" operator="arithmetic" k2="-1" k3="1"/>
<feColorMatrix type="matrix" values="0 0 0 0 0 0 0 0 0 0 0 0 0 0 0 0 0 0 0.5 0"/>
<feBlend mode="normal" in2="effect1_innerShadow_11_466" result="effect2_innerShadow_11_466"/>
</filter>
<filter id="filter1_di_11_466" x="0" y="0" width="570" height="137" filterUnits="userSpaceOnUse" color-interpolation-filters="sRGB">
<feFlood flood-opacity="0" result="BackgroundImageFix"/>
<feColorMatrix in="SourceAlpha" type="matrix" values="0 0 0 0 0 0 0 0 0 0 0 0 0 0 0 0 0 0 127 0" result="hardAlpha"/>
<feOffset dy="10"/>
<feGaussianBlur stdDeviation="25"/>
<feComposite in2="hardAlpha" operator="out"/>
<feColorMatrix type="matrix" values="0 0 0 0 0 0 0 0 0 0 0 0 0 0 0 0 0 0 0.3 0"/>
<feBlend mode="normal" in2="BackgroundImageFix" result="effect1_dropShadow_11_466"/>
<feBlend mode="normal" in="SourceGraphic" in2="effect1_dropShadow_11_466" result="shape"/>
<feColorMatrix in="SourceAlpha" type="matrix" values="0 0 0 0 0 0 0 0 0 0 0 0 0 0 0 0 0 0 127 0" result="hardAlpha"/>
<feOffset dy="4"/>
<feComposite in2="hardAlpha" operator="arithmetic" k2="-1" k3="1"/>
<feColorMatrix type="matrix" values="0 0 0 0 0.44191 0 0 0 0 0.504879 0 0 0 0 0.595833 0 0 0 1 0"/>
<feBlend mode="normal" in2="shape" result="effect2_innerShadow_11_466"/>
</filter>
<filter id="filter2_d_11_466" x="136" y="206" width="154" height="94" filterUnits="userSpaceOnUse" color-interpolation-filters="sRGB">
<feFlood flood-opacity="0" result="BackgroundImageFix"/>
<feColorMatrix in="SourceAlpha" type="matrix" values="0 0 0 0 0 0 0 0 0 0 0 0 0 0 0 0 0 0 127 0" result="hardAlpha"/>
<feOffset dy="-2"/>
<feGaussianBlur stdDeviation="2.5"/>
<feComposite in2="hardAlpha" operator="out"/>
<feColorMatrix type="matrix" values="0 0 0 0 0.352344 0 0 0 0 0.416968 0 0 0 0 0.5125 0 0 0 1 0"/>
<feBlend mode="normal" in2="BackgroundImageFix" result="effect1_dropShadow_11_466"/>
<feBlend mode="normal" in="SourceGraphic" in2="effect1_dropShadow_11_466" result="shape"/>
</filter>
<filter id="filter3_d_11_466" x="280" y="206" width="154" height="94" filterUnits="userSpaceOnUse" color-interpolation-filters="sRGB">
<feFlood flood-opacity="0" result="BackgroundImageFix"/>
<feColorMatrix in="SourceAlpha" type="matrix" values="0 0 0 0 0 0 0 0 0 0 0 0 0 0 0 0 0 0 127 0" result="hardAlpha"/>
<feOffset dy="-2"/>
<feGaussianBlur stdDeviation="2.5"/>
<feComposite in2="hardAlpha" operator="out"/>
<feColorMatrix type="matrix" values="0 0 0 0 0.352344 0 0 0 0 0.416968 0 0 0 0 0.5125 0 0 0 1 0"/>
<feBlend mode="normal" in2="BackgroundImageFix" result="effect1_dropShadow_11_466"/>
<feBlend mode="normal" in="SourceGraphic" in2="effect1_dropShadow_11_466" result="shape"/>
</filter>
<linearGradient id="paint0_linear_11_466" x1="285" y1="306" x2="285" y2="375" gradientUnits="userSpaceOnUse">
<stop stop-color="#4A5B74"/>
<stop offset="1" stop-color="#2B3646"/>
</linearGradient>
<linearGradient id="paint1_linear_11_466" x1="285" y1="266" x2="285" y2="375" gradientUnits="userSpaceOnUse">
<stop stop-color="#87909D"/>
<stop offset="0.578231" stop-color="#D4DBE4"/>
<stop offset="1" stop-color="#87909D"/>
</linearGradient>
<linearGradient id="paint2_linear_11_466" x1="173" y1="356.5" x2="284.5" y2="745" gradientUnits="userSpaceOnUse">
<stop stop-color="#8998AF"/>
<stop offset="1" stop-color="#293546"/>
</linearGradient>
<linearGradient id="paint3_linear_11_466" x1="195.46" y1="392.759" x2="284.5" y2="703" gradientUnits="userSpaceOnUse">
<stop stop-color="#313C4D"/>
<stop offset="1" stop-color="#43546D"/>
</linearGradient>
<linearGradient id="paint4_linear_11_466" x1="284.5" y1="370" x2="284.5" y2="703" gradientUnits="userSpaceOnUse">
<stop stop-color="#9FADC1"/>
<stop offset="1" stop-color="#4D596A"/>
</linearGradient>
<linearGradient id="paint5_linear_11_466" x1="205.621" y1="409.162" x2="284.5" y2="684" gradientUnits="userSpaceOnUse">
<stop stop-color="#313C4D"/>
<stop offset="1" stop-color="#43546D"/>
</linearGradient>
<linearGradient id="paint6_linear_11_466" x1="287" y1="62" x2="287" y2="245" gradientUnits="userSpaceOnUse">
<stop stop-color="#48576F"/>
<stop offset="0.489583" stop-color="#8AA2C6"/>
<stop offset="1" stop-color="#39485E"/>
</linearGradient>
<linearGradient id="paint7_linear_11_466" x1="141" y1="250" x2="285" y2="282.5" gradientUnits="userSpaceOnUse">
<stop stop-color="#424E61"/>
<stop offset="1" stop-color="#B7BDC5"/>
</linearGradient>
<linearGradient id="paint8_linear_11_466" x1="429" y1="250" x2="285" y2="282.5" gradientUnits="userSpaceOnUse">
<stop stop-color="#3C495C"/>
<stop offset="1" stop-color="#88909D"/>
</linearGradient>
<linearGradient id="paint9_linear_11_466" x1="213" y1="217" x2="222" y2="287.5" gradientUnits="userSpaceOnUse">
<stop stop-color="#8BA0C0"/>
<stop offset="1" stop-color="#303B4D"/>
</linearGradient>
<linearGradient id="paint10_linear_11_466" x1="357" y1="217" x2="390.5" y2="282" gradientUnits="userSpaceOnUse">
<stop stop-color="#8BA0C0"/>
<stop offset="1" stop-color="#424E61"/>
</linearGradient>
<linearGradient id="paint11_linear_11_466" x1="252" y1="525" x2="230.5" y2="552" gradientUnits="userSpaceOnUse">
<stop stop-color="#2A3345"/>
<stop offset="1" stop-color="#4B5C7B"/>
</linearGradient>
<linearGradient id="paint12_linear_11_466" x1="309.567" y1="481.458" x2="318" y2="526.5" gradientUnits="userSpaceOnUse">
<stop stop-color="#8998B0"/>
<stop offset="1" stop-color="#333C4B"/>
</linearGradient>
<linearGradient id="paint13_linear_11_466" x1="324" y1="569" x2="306" y2="554.5" gradientUnits="userSpaceOnUse">
<stop stop-color="#2A3345"/>
<stop offset="1" stop-color="#4B5C7B"/>
</linearGradient>
<linearGradient id="paint14_linear_11_466" x1="228.546" y1="481.458" x2="228.546" y2="525.066" gradientUnits="userSpaceOnUse">
<stop stop-color="#42526B"/>
<stop offset="1" stop-color="#8390A4"/>
</linearGradient>
<linearGradient id="paint15_linear_11_466" x1="228.546" y1="481.458" x2="228.546" y2="525.066" gradientUnits="userSpaceOnUse">
<stop stop-color="#C2D0E2"/>
<stop offset="1" stop-color="#89A2C5" stop-opacity="0"/>
</linearGradient>
<linearGradient id="paint16_linear_11_466" x1="340.546" y1="481.458" x2="340.546" y2="525.066" gradientUnits="userSpaceOnUse">
<stop stop-color="#42526B"/>
<stop offset="1" stop-color="#8390A4"/>
</linearGradient>
<linearGradient id="paint17_linear_11_466" x1="284.5" y1="481.458" x2="284.5" y2="525.066" gradientUnits="userSpaceOnUse">
<stop stop-color="#21293A"/>
<stop offset="1" stop-color="#94A1BC"/>
</linearGradient>
<linearGradient id="paint18_linear_11_466" x1="303.5" y1="511" x2="284.556" y2="525.066" gradientUnits="userSpaceOnUse">
<stop stop-color="#AFBACB"/>
<stop offset="1" stop-color="#C0CDE0" stop-opacity="0"/>
</linearGradient>
<linearGradient id="paint19_linear_11_466" x1="259.933" y1="481.458" x2="251.5" y2="526.5" gradientUnits="userSpaceOnUse">
<stop stop-color="#8998B0"/>
<stop offset="1" stop-color="#333C4B"/>
</linearGradient>
<linearGradient id="paint20_linear_11_466" x1="284.5" y1="525.066" x2="284.5" y2="609.542" gradientUnits="userSpaceOnUse">
<stop stop-color="#273041"/>
<stop offset="1" stop-color="#909DB8"/>
</linearGradient>
<linearGradient id="paint21_linear_11_466" x1="269.5" y1="569" x2="300.5" y2="528" gradientUnits="userSpaceOnUse">
<stop stop-color="#677589"/>
<stop offset="1" stop-color="#B0BBCC" stop-opacity="0"/>
</linearGradient>
<clipPath id="clip0_11_466">
<rect width="159" height="159" fill="white" transform="translate(205 466)"/>
</clipPath>
</defs>
</svg>
