<svg width="1600" height="1200" viewBox="0 0 1600 1200" fill="none" xmlns="http://www.w3.org/2000/svg">
<g clip-path="url(#clip0_16_34)">
<rect width="1600" height="1200" fill="white"/>
<rect width="1600" height="1200" fill="#152B68"/>
<path d="M1566.5 547.5L1566.5 656.5L780.5 615.5L780.5 575.5L1566.5 547.5Z" fill="url(#paint0_linear_16_34)"/>
<g filter="url(#filter0_d_16_34)">
<path fill-rule="evenodd" clip-rule="evenodd" d="M603.666 596.087L601.469 604.711C600.099 610.088 597.989 615.25 595.201 620.048L568.323 666.292C557.489 684.932 557.489 707.952 568.323 726.592L595.201 772.837C597.989 777.634 600.099 782.796 601.469 788.174L614.619 839.786C620.006 860.931 636.448 877.484 657.556 883.014L707.779 896.171C713.253 897.605 718.497 899.807 723.355 902.71L767.719 929.224C786.676 940.554 810.324 940.554 829.281 929.224L873.646 902.71C878.503 899.807 883.747 897.605 889.221 896.171L939.444 883.014C960.552 877.484 976.994 860.931 982.382 839.786L995.531 788.174C996.901 782.796 999.011 777.634 1001.8 772.837L1028.68 726.593C1039.51 707.952 1039.51 684.932 1028.68 666.292L1001.8 620.048C999.011 615.25 996.901 610.088 995.531 604.711L993.334 596.087H603.666Z" fill="#5282FF"/>
</g>
<g filter="url(#filter1_i_16_34)">
<mask id="path-4-inside-1_16_34" fill="white">
<path fill-rule="evenodd" clip-rule="evenodd" d="M614.984 552C614.883 552.363 614.787 552.728 614.693 553.094L601.515 604.699C600.14 610.084 598.023 615.253 595.225 620.056L568.319 666.24C557.445 684.906 557.445 707.978 568.319 726.645L595.225 772.829C598.023 777.632 600.14 782.8 601.515 788.186L614.693 839.79C620.092 860.932 636.543 877.477 657.655 882.995L708.1 896.18C713.566 897.608 718.803 899.802 723.656 902.695L768.272 929.299C787.202 940.586 810.798 940.586 829.728 929.299L874.344 902.695C879.197 899.802 884.434 897.608 889.9 896.18L940.345 882.995C961.457 877.477 977.908 860.932 983.307 839.79L996.485 788.186C997.86 782.8 999.977 777.632 1002.78 772.829L1029.68 726.645C1040.56 707.978 1040.56 684.906 1029.68 666.24L1002.78 620.056C999.977 615.253 997.86 610.084 996.485 604.699L983.307 553.094C983.214 552.728 983.117 552.363 983.017 552H614.984Z"/>
</mask>
<path d="M614.693 553.094L634.071 558.043L634.071 558.043L614.693 553.094ZM614.984 552V532H599.748L595.702 546.688L614.984 552ZM601.515 604.699L582.137 599.75L582.137 599.75L601.515 604.699ZM595.225 620.056L577.943 609.988L577.943 609.988L595.225 620.056ZM568.319 666.24L585.601 676.307L585.601 676.307L568.319 666.24ZM568.319 726.645L551.038 736.713L551.038 736.713L568.319 726.645ZM595.225 772.829L612.506 762.762L612.506 762.762L595.225 772.829ZM601.515 788.186L582.137 793.135L582.137 793.135L601.515 788.186ZM614.693 839.79L634.071 834.842L634.071 834.842L614.693 839.79ZM657.655 882.995L662.712 863.645L662.712 863.645L657.655 882.995ZM708.1 896.18L713.158 876.83L713.158 876.83L708.1 896.18ZM723.656 902.695L713.413 919.873L713.413 919.873L723.656 902.695ZM768.272 929.299L758.029 946.477L758.029 946.477L768.272 929.299ZM829.728 929.299L839.971 946.477L839.971 946.477L829.728 929.299ZM874.344 902.695L884.587 919.873L884.587 919.873L874.344 902.695ZM889.9 896.18L884.842 876.83L884.842 876.83L889.9 896.18ZM940.345 882.995L945.403 902.345L945.403 902.345L940.345 882.995ZM983.307 839.79L1002.69 844.739L1002.69 844.739L983.307 839.79ZM996.485 788.186L977.107 783.238L977.107 783.238L996.485 788.186ZM1002.78 772.829L985.494 762.762L985.494 762.762L1002.78 772.829ZM1029.68 726.645L1012.4 716.577L1012.4 716.577L1029.68 726.645ZM1029.68 666.24L1012.4 676.307L1012.4 676.307L1029.68 666.24ZM1002.78 620.056L1020.06 609.988L1020.06 609.988L1002.78 620.056ZM996.485 604.699L977.107 609.647L977.107 609.647L996.485 604.699ZM983.307 553.094L963.929 558.043L963.929 558.043L983.307 553.094ZM983.017 552L1002.3 546.689L998.252 532H983.017V552ZM634.071 558.043C634.134 557.798 634.198 557.554 634.265 557.312L595.702 546.688C595.568 547.172 595.44 547.658 595.315 548.146L634.071 558.043ZM620.893 609.647L634.071 558.043L595.315 548.146L582.137 599.75L620.893 609.647ZM612.506 630.123C616.237 623.719 619.059 616.828 620.893 609.647L582.137 599.75C581.22 603.341 579.809 606.786 577.943 609.988L612.506 630.123ZM585.601 676.307L612.506 630.123L577.943 609.988L551.038 656.172L585.601 676.307ZM585.601 716.577C578.351 704.133 578.351 688.752 585.601 676.307L551.038 656.172C536.538 681.061 536.538 711.824 551.038 736.713L585.601 716.577ZM612.506 762.762L585.601 716.577L551.038 736.713L577.943 782.897L612.506 762.762ZM620.893 783.238C619.059 776.057 616.237 769.165 612.506 762.762L577.943 782.897C579.809 786.099 581.22 789.544 582.137 793.135L620.893 783.238ZM634.071 834.842L620.893 783.238L582.137 793.135L595.315 844.739L634.071 834.842ZM662.712 863.645C648.638 859.966 637.671 848.937 634.071 834.842L595.315 844.739C602.514 872.928 624.449 894.987 652.597 902.345L662.712 863.645ZM713.158 876.83L662.712 863.645L652.597 902.345L703.043 915.53L713.158 876.83ZM733.899 885.517C727.428 881.659 720.446 878.735 713.158 876.83L703.043 915.53C706.687 916.482 710.178 917.945 713.413 919.873L733.899 885.517ZM778.515 912.121L733.899 885.517L713.413 919.873L758.029 946.477L778.515 912.121ZM819.486 912.121C806.865 919.646 791.135 919.646 778.515 912.121L758.029 946.477C783.27 961.527 814.73 961.527 839.971 946.477L819.486 912.121ZM864.102 885.517L819.486 912.121L839.971 946.477L884.587 919.873L864.102 885.517ZM884.842 876.83C877.554 878.735 870.572 881.659 864.102 885.517L884.587 919.873C887.822 917.945 891.313 916.482 894.958 915.53L884.842 876.83ZM935.288 863.645L884.842 876.83L894.958 915.53L945.403 902.345L935.288 863.645ZM963.929 834.842C960.33 848.937 949.362 859.966 935.288 863.645L945.403 902.345C973.551 894.987 995.487 872.928 1002.69 844.739L963.929 834.842ZM977.107 783.238L963.929 834.842L1002.69 844.739L1015.86 793.135L977.107 783.238ZM985.494 762.762C981.763 769.165 978.941 776.057 977.107 783.238L1015.86 793.135C1016.78 789.544 1018.19 786.099 1020.06 782.897L985.494 762.762ZM1012.4 716.577L985.494 762.762L1020.06 782.897L1046.96 736.713L1012.4 716.577ZM1012.4 676.307C1019.65 688.752 1019.65 704.133 1012.4 716.577L1046.96 736.713C1061.46 711.824 1061.46 681.061 1046.96 656.172L1012.4 676.307ZM985.494 630.123L1012.4 676.307L1046.96 656.172L1020.06 609.988L985.494 630.123ZM977.107 609.647C978.941 616.828 981.763 623.719 985.494 630.123L1020.06 609.988C1018.19 606.786 1016.78 603.34 1015.86 599.75L977.107 609.647ZM963.929 558.043L977.107 609.647L1015.86 599.75L1002.69 548.146L963.929 558.043ZM963.735 557.311C963.802 557.555 963.866 557.798 963.929 558.043L1002.69 548.146C1002.56 547.658 1002.43 547.172 1002.3 546.689L963.735 557.311ZM983.017 532H614.984V572H983.017V532Z" fill="#309AF9" mask="url(#path-4-inside-1_16_34)"/>
</g>
<path d="M453.303 582.929L583.544 582.929V696.223L453.303 696.223L492.088 639.576L453.303 582.929Z" fill="#FA374B"/>
<path d="M453.065 582.929H583.353V595.517H461.876L453.065 582.929Z" fill="#FFE17A"/>
<path d="M453.065 696.223H583.353V683.635H461.876L453.065 696.223Z" fill="#FFE17A"/>
<path d="M583.544 696.223L520.603 639.576H583.544V696.223Z" fill="#973842"/>
<path d="M1144.11 582.929L1013.87 582.929V696.223L1144.11 696.223L1105.33 639.576L1144.11 582.929Z" fill="#FA374B"/>
<path d="M1144.35 582.929H1014.06V595.517H1135.54L1144.35 582.929Z" fill="#FFE17A"/>
<path d="M1144.35 696.223H1014.06V683.635H1135.54L1144.35 696.223Z" fill="#FFE17A"/>
<path d="M1013.87 696.223L1076.81 639.576H1013.87V696.223Z" fill="#973842"/>
<rect x="520.603" y="526.282" width="556.399" height="113.294" fill="#FF6261"/>
<rect x="584" y="639" width="430" height="13" fill="#3661F3"/>
<rect x="520.603" y="526.282" width="556.399" height="12.5882" fill="#FFE17A"/>
<rect x="520.603" y="626.988" width="556.399" height="12.5882" fill="#FFE17A"/>
<g filter="url(#filter2_d_16_34)">
<path d="M568.438 564.047L573.877 575.444L586.397 577.094L577.238 585.788L579.537 598.205L568.438 592.181L557.34 598.205L559.639 585.788L550.48 577.094L563 575.444L568.438 564.047Z" fill="url(#paint1_angular_16_34)"/>
</g>
<g filter="url(#filter3_d_16_34)">
<path d="M1031.68 564.047L1037.12 575.444L1049.64 577.094L1040.48 585.788L1042.78 598.205L1031.68 592.181L1020.59 598.205L1022.89 585.788L1013.73 577.094L1026.25 575.444L1031.68 564.047Z" fill="url(#paint2_angular_16_34)"/>
</g>
<path d="M741.557 734.371C741.557 728.848 746.034 724.371 751.557 724.371H890.326C898.004 724.371 902.818 732.665 899.009 739.332L866.443 796.332C864.662 799.448 861.349 801.371 857.76 801.371H751.557C746.034 801.371 741.557 796.894 741.557 791.371V734.371Z" fill="#2E5EC4"/>
<path d="M734.741 770.727H746.263V782.249H734.741V770.727Z" fill="#FFB300"/>
<path d="M749.397 786.576H731.599V781.001C731.599 779.954 732.455 779.098 733.503 779.098H747.502C748.55 779.098 749.406 779.954 749.406 781.001V786.576H749.397Z" fill="#FFE606"/>
<path d="M758.359 806.559H722.636C721.589 806.559 720.733 805.703 720.733 804.656V788.434C720.733 787.386 721.589 786.53 722.636 786.53H758.368C759.416 786.53 760.272 787.386 760.272 788.434V804.656C760.263 805.712 759.416 806.559 758.359 806.559Z" fill="#FFCA28"/>
<path d="M752.002 801.805H728.994C728.466 801.805 728.047 801.377 728.047 800.858V791.667C728.047 791.139 728.475 790.72 728.994 790.72H752.002C752.53 790.72 752.949 791.148 752.949 791.667V800.848C752.949 801.377 752.53 801.805 752.002 801.805Z" fill="#FFE500"/>
<path d="M717.29 724.658V750.598C709.657 749.533 703.764 742.966 703.764 735.041V724.658H717.29M722.044 719.903H702.807C700.703 719.903 699 721.606 699 723.71V735.05C699 746.354 708.163 755.517 719.467 755.517H722.044V719.903V719.903ZM777.232 724.658V734.568C777.232 742.583 771.366 749.259 763.706 750.526V724.658H777.232M778.188 719.903H758.951V755.508H761.055C772.614 755.508 781.986 746.135 781.986 734.577V723.71C781.995 721.606 780.283 719.903 778.188 719.903V719.903Z" fill="#FFE600"/>
<path d="M740.498 773.013C725.678 773.013 713.665 760.999 713.665 746.18V716.514C713.665 715.521 714.475 714.711 715.468 714.711H765.519C766.511 714.711 767.322 715.521 767.322 716.514V746.18C767.331 760.999 755.317 773.013 740.498 773.013Z" fill="#FFCA28"/>
<path d="M765.573 755.753L752.166 738.137L733.357 751.618L748.568 771.784C752.566 770.463 755.363 768.696 758.031 766.473C761.21 763.823 763.761 760.298 765.573 755.753V755.753Z" fill="#FFB806"/>
<path d="M741.436 730.24L744.287 736.006C744.423 736.288 744.697 736.479 745.006 736.525L751.373 737.454C752.156 737.563 752.466 738.529 751.901 739.075L747.293 743.566C747.065 743.784 746.965 744.103 747.019 744.404L748.103 750.743C748.24 751.517 747.42 752.109 746.719 751.745L740.58 748.521L734.441 751.745C733.739 752.109 732.929 751.517 733.056 750.743L734.14 744.404C734.195 744.094 734.095 743.784 733.867 743.566L729.258 739.075C728.693 738.529 729.003 737.563 729.786 737.454L736.153 736.525C736.463 736.479 736.727 736.288 736.873 736.006L739.724 730.24C740.079 729.53 741.09 729.53 741.436 730.24V730.24Z" fill="#FFF8E1"/>
<g filter="url(#filter4_d_16_34)">
<rect x="711.572" y="714" width="57.8508" height="4.72252" rx="2" fill="#FFDA58"/>
</g>
<path d="M668.953 272L673.373 285.323L685.317 290.253L673.373 295.183L668.953 308.506L664.533 295.183L652.588 290.253L664.533 285.323L668.953 272Z" fill="white"/>
<path d="M906.87 464.6L911.63 479.301L924.493 484.741L911.63 490.181L906.87 504.882L902.11 490.181L889.246 484.741L902.11 479.301L906.87 464.6Z" fill="white"/>
<path d="M690.352 465.859L693.752 475.966L702.941 479.706L693.752 483.446L690.352 493.553L686.953 483.446L677.764 479.706L686.953 475.966L690.352 465.859Z" fill="#FFDF37"/>
<path d="M731.894 304.729L735.974 316.674L746.999 321.094L735.974 325.514L731.894 337.459L727.814 325.514L716.788 321.094L727.814 316.674L731.894 304.729Z" fill="#FFDF37"/>
</g>
<defs>
<filter id="filter0_d_16_34" x="560.197" y="596.087" width="476.606" height="349.635" filterUnits="userSpaceOnUse" color-interpolation-filters="sRGB">
<feFlood flood-opacity="0" result="BackgroundImageFix"/>
<feColorMatrix in="SourceAlpha" type="matrix" values="0 0 0 0 0 0 0 0 0 0 0 0 0 0 0 0 0 0 127 0" result="hardAlpha"/>
<feOffset dy="8"/>
<feComposite in2="hardAlpha" operator="out"/>
<feColorMatrix type="matrix" values="0 0 0 0 0.180392 0 0 0 0 0.368627 0 0 0 0 0.768627 0 0 0 1 0"/>
<feBlend mode="normal" in2="BackgroundImageFix" result="effect1_dropShadow_16_34"/>
<feBlend mode="normal" in="SourceGraphic" in2="effect1_dropShadow_16_34" result="shape"/>
</filter>
<filter id="filter1_i_16_34" x="560.163" y="552" width="477.674" height="387.764" filterUnits="userSpaceOnUse" color-interpolation-filters="sRGB">
<feFlood flood-opacity="0" result="BackgroundImageFix"/>
<feBlend mode="normal" in="SourceGraphic" in2="BackgroundImageFix" result="shape"/>
<feColorMatrix in="SourceAlpha" type="matrix" values="0 0 0 0 0 0 0 0 0 0 0 0 0 0 0 0 0 0 127 0" result="hardAlpha"/>
<feOffset dy="2"/>
<feGaussianBlur stdDeviation="2.5"/>
<feComposite in2="hardAlpha" operator="arithmetic" k2="-1" k3="1"/>
<feColorMatrix type="matrix" values="0 0 0 0 0.180392 0 0 0 0 0.368627 0 0 0 0 0.768627 0 0 0 1 0"/>
<feBlend mode="normal" in2="shape" result="effect1_innerShadow_16_34"/>
</filter>
<filter id="filter2_d_16_34" x="546.48" y="562.047" width="43.9165" height="42.1584" filterUnits="userSpaceOnUse" color-interpolation-filters="sRGB">
<feFlood flood-opacity="0" result="BackgroundImageFix"/>
<feColorMatrix in="SourceAlpha" type="matrix" values="0 0 0 0 0 0 0 0 0 0 0 0 0 0 0 0 0 0 127 0" result="hardAlpha"/>
<feOffset dy="2"/>
<feGaussianBlur stdDeviation="2"/>
<feComposite in2="hardAlpha" operator="out"/>
<feColorMatrix type="matrix" values="0 0 0 0 0.592157 0 0 0 0 0.219608 0 0 0 0 0.258824 0 0 0 0.7 0"/>
<feBlend mode="normal" in2="BackgroundImageFix" result="effect1_dropShadow_16_34"/>
<feBlend mode="normal" in="SourceGraphic" in2="effect1_dropShadow_16_34" result="shape"/>
</filter>
<filter id="filter3_d_16_34" x="1009.73" y="562.047" width="43.9163" height="42.1584" filterUnits="userSpaceOnUse" color-interpolation-filters="sRGB">
<feFlood flood-opacity="0" result="BackgroundImageFix"/>
<feColorMatrix in="SourceAlpha" type="matrix" values="0 0 0 0 0 0 0 0 0 0 0 0 0 0 0 0 0 0 127 0" result="hardAlpha"/>
<feOffset dy="2"/>
<feGaussianBlur stdDeviation="2"/>
<feComposite in2="hardAlpha" operator="out"/>
<feColorMatrix type="matrix" values="0 0 0 0 0.592157 0 0 0 0 0.219608 0 0 0 0 0.258824 0 0 0 0.7 0"/>
<feBlend mode="normal" in2="BackgroundImageFix" result="effect1_dropShadow_16_34"/>
<feBlend mode="normal" in="SourceGraphic" in2="effect1_dropShadow_16_34" result="shape"/>
</filter>
<filter id="filter4_d_16_34" x="711.572" y="714" width="57.8508" height="5.72253" filterUnits="userSpaceOnUse" color-interpolation-filters="sRGB">
<feFlood flood-opacity="0" result="BackgroundImageFix"/>
<feColorMatrix in="SourceAlpha" type="matrix" values="0 0 0 0 0 0 0 0 0 0 0 0 0 0 0 0 0 0 127 0" result="hardAlpha"/>
<feOffset dy="1"/>
<feComposite in2="hardAlpha" operator="out"/>
<feColorMatrix type="matrix" values="0 0 0 0 0.866667 0 0 0 0 0.653023 0 0 0 0 0 0 0 0 1 0"/>
<feBlend mode="normal" in2="BackgroundImageFix" result="effect1_dropShadow_16_34"/>
<feBlend mode="normal" in="SourceGraphic" in2="effect1_dropShadow_16_34" result="shape"/>
</filter>
<linearGradient id="paint0_linear_16_34" x1="1493.5" y1="602" x2="780.5" y2="602" gradientUnits="userSpaceOnUse">
<stop stop-color="#FED402" stop-opacity="0"/>
<stop offset="1" stop-color="#FED402" stop-opacity="0.1"/>
</linearGradient>
<radialGradient id="paint1_angular_16_34" cx="0" cy="0" r="1" gradientUnits="userSpaceOnUse" gradientTransform="translate(568.438 582.929) rotate(90) scale(18.8823)">
<stop offset="0.100798" stop-color="#FFE70D"/>
<stop offset="0.100853" stop-color="#FFD02F"/>
<stop offset="0.299723" stop-color="#FFF61D"/>
<stop offset="0.299757" stop-color="#FFB82F"/>
<stop offset="0.499698" stop-color="#FFC417"/>
<stop offset="0.5" stop-color="#FFE70D"/>
<stop offset="0.700423" stop-color="#FFB800"/>
<stop offset="0.70045" stop-color="#FFE70D"/>
<stop offset="0.899692" stop-color="#FFD02F"/>
<stop offset="0.899983" stop-color="#FFE70D"/>
</radialGradient>
<radialGradient id="paint2_angular_16_34" cx="0" cy="0" r="1" gradientUnits="userSpaceOnUse" gradientTransform="translate(1031.68 582.929) rotate(90) scale(18.8823)">
<stop offset="0.100798" stop-color="#FFE70D"/>
<stop offset="0.100853" stop-color="#FFD02F"/>
<stop offset="0.299723" stop-color="#FFF61D"/>
<stop offset="0.299757" stop-color="#FFB82F"/>
<stop offset="0.499698" stop-color="#FFC417"/>
<stop offset="0.5" stop-color="#FFE70D"/>
<stop offset="0.700423" stop-color="#FFB800"/>
<stop offset="0.70045" stop-color="#FFE70D"/>
<stop offset="0.899692" stop-color="#FFD02F"/>
<stop offset="0.899983" stop-color="#FFE70D"/>
</radialGradient>
<clipPath id="clip0_16_34">
<rect width="1600" height="1200" fill="white"/>
</clipPath>
</defs>
</svg>
