<svg width="1600" height="1200" viewBox="0 0 1600 1200" fill="none" xmlns="http://www.w3.org/2000/svg">
<g clip-path="url(#clip0_16_34)">
<rect width="1600" height="1200" fill="white"/>
<rect width="1600" height="1200" fill="#152B68"/>
<g filter="url(#filter0_f_16_34)">
<circle cx="803" cy="621" r="537" fill="#FF5C00" fill-opacity="0.17"/>
</g>
<path d="M745 9H854L813 621H773L745 9Z" fill="url(#paint0_linear_16_34)"/>
<path d="M745 1195H854L813 583H773L745 1195Z" fill="url(#paint1_linear_16_34)"/>
<path d="M1566.5 547.5L1566.5 656.5L780.5 615.5L780.5 575.5L1566.5 547.5Z" fill="url(#paint2_linear_16_34)"/>
<path d="M24.5 547.5L24.5 656.5L818.5 615.5L818.5 575.5L24.5 547.5Z" fill="url(#paint3_linear_16_34)"/>
<path d="M1228.2 1242.46L1133.8 1296.96L776.309 595.76L810.95 575.76L1228.2 1242.46Z" fill="url(#paint4_linear_16_34)"/>
<path d="M413.654 -92.9556L319.257 -38.4556L751.764 628.669L786.405 608.669L413.654 -92.9556Z" fill="url(#paint5_linear_16_34)"/>
<path d="M1490.46 940.302L1435.96 1034.7L775.76 606.191L795.76 571.55L1490.46 940.302Z" fill="url(#paint6_linear_16_34)"/>
<path d="M111.5 169.302L57 263.698L765.124 625.191L785.124 590.55L111.5 169.302Z" fill="url(#paint7_linear_16_34)"/>
<path d="M457.198 1296.96L362.801 1242.46L791.309 582.26L825.95 602.26L457.198 1296.96Z" fill="url(#paint8_linear_16_34)"/>
<path d="M1269.4 -38.4556L1175 -92.9556L813.507 615.169L848.148 635.169L1269.4 -38.4556Z" fill="url(#paint9_linear_16_34)"/>
<path d="M155.044 1034.7L100.544 940.301L801.74 582.809L821.74 617.45L155.044 1034.7Z" fill="url(#paint10_linear_16_34)"/>
<path d="M1531.65 263.698L1477.15 169.302L810.03 601.809L830.03 636.45L1531.65 263.698Z" fill="url(#paint11_linear_16_34)"/>
<g filter="url(#filter1_i_16_34)">
<circle cx="803" cy="621" r="401" fill="#FF3D00" fill-opacity="0.05"/>
</g>
<path d="M1215.42 305C1214.33 304.999 1213.24 304.759 1212.25 304.297L1207.69 302.205C1200.54 298.88 1194.74 293.197 1191.25 286.1C1187.76 279.004 1186.79 270.921 1188.5 263.195C1189.61 258.828 1189.18 254.21 1187.29 250.125C1185.39 246.04 1182.15 242.741 1178.11 240.788L1173.38 238.558C1172.48 238.133 1171.66 237.533 1170.99 236.793C1170.32 236.052 1169.8 235.185 1169.45 234.242C1169.11 233.299 1168.96 232.298 1169.01 231.296C1169.05 230.293 1169.29 229.31 1169.72 228.401C1170.14 227.493 1170.74 226.677 1171.47 226C1172.21 225.323 1173.07 224.799 1174.01 224.457C1174.95 224.115 1175.95 223.963 1176.94 224.008C1177.94 224.053 1178.92 224.295 1179.82 224.72L1184.55 226.95C1191.7 230.342 1197.46 236.096 1200.89 243.25C1204.32 250.403 1205.2 258.523 1203.38 266.25C1202.37 270.597 1202.88 275.162 1204.81 279.18C1206.75 283.198 1210 286.425 1214.02 288.321L1218.58 290.413C1220.16 291.143 1221.43 292.389 1222.21 293.948C1222.98 295.506 1223.19 297.282 1222.82 298.982C1222.45 300.682 1221.52 302.204 1220.17 303.295C1218.82 304.387 1217.14 304.983 1215.41 304.985L1215.42 305Z" fill="#ED456A"/>
<path d="M250.423 744C249.326 743.999 248.242 743.759 247.246 743.297L242.686 741.205C235.538 737.88 229.737 732.197 226.247 725.1C222.758 718.004 221.789 709.921 223.504 702.195C224.614 697.828 224.185 693.21 222.289 689.125C220.394 685.04 217.149 681.741 213.107 679.788L208.38 677.558C207.476 677.133 206.664 676.533 205.99 675.793C205.317 675.052 204.795 674.185 204.455 673.242C204.115 672.299 203.963 671.298 204.008 670.296C204.053 669.293 204.294 668.31 204.717 667.401C205.14 666.493 205.737 665.677 206.474 665C207.211 664.323 208.073 663.799 209.012 663.457C209.951 663.115 210.947 662.963 211.944 663.008C212.942 663.053 213.92 663.295 214.825 663.72L219.552 665.95C226.696 669.342 232.464 675.096 235.892 682.25C239.32 689.403 240.2 697.523 238.384 705.25C237.371 709.597 237.876 714.162 239.813 718.18C241.75 722.198 245.002 725.425 249.024 727.321L253.584 729.413C255.157 730.143 256.434 731.389 257.205 732.948C257.976 734.506 258.195 736.282 257.824 737.982C257.453 739.682 256.516 741.204 255.167 742.295C253.819 743.387 252.139 743.983 250.407 743.985L250.423 744Z" fill="#ED456A"/>
<path d="M1306.91 43.743C1306.62 42.6831 1306.58 41.5743 1306.76 40.4926L1307.6 35.5464C1308.97 27.781 1312.95 20.7069 1318.91 15.4995C1324.86 10.2922 1332.41 7.26516 1340.32 6.92143C1344.83 6.86353 1349.18 5.25376 1352.63 2.36574C1356.09 -0.522273 1358.43 -4.51029 1359.27 -8.92033L1360.2 -14.0636C1360.38 -15.047 1360.75 -15.9867 1361.29 -16.8289C1361.83 -17.671 1362.53 -18.3993 1363.36 -18.9719C1364.18 -19.5446 1365.11 -19.9505 1366.09 -20.1665C1367.07 -20.3825 1368.08 -20.4044 1369.07 -20.2308C1370.05 -20.0572 1371 -19.6916 1371.84 -19.1549C1372.68 -18.6182 1373.41 -17.9208 1373.99 -17.1027C1374.56 -16.2845 1374.97 -15.3616 1375.18 -14.3866C1375.4 -13.4115 1375.41 -12.4035 1375.24 -11.42L1374.31 -6.27678C1372.88 1.50175 1368.82 8.56293 1362.79 13.7257C1356.77 18.8884 1349.15 21.8396 1341.22 22.0857C1336.76 22.2324 1332.48 23.9009 1329.1 26.8118C1325.72 29.7228 1323.45 33.6992 1322.66 38.0753L1321.81 43.0215C1321.52 44.7291 1320.64 46.2858 1319.34 47.4339C1318.03 48.582 1316.37 49.2525 1314.64 49.3345C1312.9 49.4165 1311.18 48.905 1309.78 47.8848C1308.38 46.8645 1307.37 45.3967 1306.92 43.7243L1306.91 43.743Z" fill="#45E3ED"/>
<path d="M886.5 1076C897.822 1076 907 1066.82 907 1055.5C907 1044.18 897.822 1035 886.5 1035C875.178 1035 866 1044.18 866 1055.5C866 1066.82 875.178 1076 886.5 1076Z" fill="url(#paint12_linear_16_34)"/>
<path d="M1490 402C1497.18 402 1503 396.18 1503 389C1503 381.82 1497.18 376 1490 376C1482.82 376 1477 381.82 1477 389C1477 396.18 1482.82 402 1490 402Z" fill="#FFCF55"/>
<path d="M666.845 -8.98686C675.716 -18.117 685.775 -17.5916 691.116 -12.3634C696.454 -7.14051 697.233 2.92381 688.363 12.0315C684.897 15.5873 684.801 18.2904 685.336 18.8311C685.886 19.3625 688.593 19.1959 692.042 15.6356C700.917 6.52481 710.976 7.05016 716.314 12.273C721.671 17.4919 722.433 27.5517 713.559 36.6764C710.098 40.229 710 42.9407 710.548 43.4667C711.09 43.9957 713.788 43.8269 717.252 40.2797C717.815 39.6708 718.494 39.1815 719.25 38.8406C720.005 38.4998 720.822 38.3142 721.651 38.295C722.481 38.2757 723.306 38.4232 724.079 38.7286C724.852 39.034 725.557 39.4912 726.151 40.0732C726.746 40.6552 727.218 41.3503 727.541 42.1173C727.864 42.8844 728.03 43.7079 728.03 44.5393C728.031 45.3707 727.865 46.1932 727.542 46.9582C727.22 47.7232 726.748 48.4152 726.153 48.9934C717.292 58.1034 707.229 57.5951 701.874 52.3676C696.536 47.1448 695.769 37.0881 704.648 27.9603C708.106 24.4023 708.21 21.7014 707.66 21.1701C707.118 20.641 704.419 20.7959 700.958 24.3485C692.083 33.4732 682.031 32.9587 676.681 27.7281C671.335 22.503 670.568 12.4464 679.447 3.31858C682.901 -0.222459 682.995 -2.93954 682.456 -3.4632C681.903 -3.99995 679.212 -3.84275 675.749 -0.28161C675.189 0.337957 674.51 0.837631 673.752 1.18753C672.995 1.53744 672.174 1.73038 671.339 1.75483C670.504 1.77928 669.672 1.63473 668.892 1.32983C668.113 1.02492 667.403 0.565929 666.804 -0.0197107C666.205 -0.605351 665.73 -1.3056 665.406 -2.0786C665.083 -2.8516 664.918 -3.68147 664.922 -4.51858C664.926 -5.35568 665.098 -6.18284 665.429 -6.95058C665.759 -7.71833 666.241 -8.41089 666.845 -8.98686" fill="#77B255"/>
<path d="M1316.35 1093.34C1315.3 1092.73 1314.4 1091.89 1313.74 1090.88C1313.07 1089.86 1312.65 1088.71 1312.5 1087.5C1312.36 1086.3 1312.5 1085.08 1312.92 1083.94C1313.33 1082.8 1314.01 1081.78 1314.89 1080.95C1337.19 1059.98 1367.5 1023.48 1365.08 1008.01C1364.81 1006.26 1364.06 1004.26 1360.62 1002.61C1354.01 999.429 1346.93 1013.1 1346.86 1013.24C1346.43 1014.18 1345.82 1015.02 1345.06 1015.72C1344.3 1016.42 1343.4 1016.96 1342.43 1017.31C1341.46 1017.66 1340.42 1017.82 1339.39 1017.76C1338.35 1017.71 1337.34 1017.45 1336.4 1017C1335.47 1016.55 1334.64 1015.92 1333.95 1015.14C1333.26 1014.37 1332.74 1013.46 1332.4 1012.48C1332.07 1011.5 1331.94 1010.46 1332.01 1009.43C1332.08 1008.4 1332.36 1007.39 1332.83 1006.47C1337.48 996.791 1350.7 980.601 1367.35 988.609C1374.78 992.184 1379.28 998.068 1380.47 1005.66C1385 1034.75 1335.54 1082.92 1325.57 1092.28C1324.36 1093.42 1322.8 1094.14 1321.14 1094.33C1319.48 1094.53 1317.8 1094.18 1316.35 1093.34" fill="#9560EC"/>
<path d="M1373.5 635.633L1407.87 648.056L1419.56 636.313L1385.18 623.89L1373.5 635.633Z" fill="#DC4E45"/>
<path d="M1407.87 648.065L1395.28 613.743L1406.96 602L1419.55 636.322L1407.87 648.065Z" fill="#FF6B5B"/>
<path d="M1351.8 657.441L1386.18 669.855L1397.87 658.112L1363.48 645.698L1351.8 657.441Z" fill="#DC4E45"/>
<path d="M1386.18 669.864L1373.59 635.542L1385.27 623.799L1397.86 658.121L1386.18 669.864ZM1364.49 691.663L1351.9 657.341L1363.58 645.598L1376.17 679.92L1364.49 691.663Z" fill="#FF6B5B"/>
<path d="M260.468 200.038L257.274 236.45L271.62 244.732L274.814 208.32L260.468 200.038Z" fill="#45DCDC"/>
<path d="M257.263 236.443L287.21 215.478L301.556 223.76L271.609 244.726L257.263 236.443Z" fill="#5BFFF5"/>
<path d="M233.826 184.656L230.643 221.074L244.989 229.357L248.172 192.938L233.826 184.656Z" fill="#45DCDC"/>
<path d="M230.632 221.067L260.579 200.102L274.925 208.384L244.978 229.35L230.632 221.067ZM204 205.692L233.948 184.726L248.294 193.009L218.346 213.974L204 205.692Z" fill="#5BFFF5"/>
<path d="M290.393 1144.63L333.67 1161.57L348.911 1147.03L305.634 1130.1L290.393 1144.63Z" fill="#FFEC41"/>
<path d="M333.658 1161.58L318.804 1117.54L334.045 1103L348.899 1147.04L333.658 1161.58Z" fill="#FFB45B"/>
<path d="M262.088 1171.63L305.376 1188.55L320.618 1174.01L277.329 1157.09L262.088 1171.63Z" fill="#FFEC41"/>
<path d="M305.364 1188.56L290.51 1144.52L305.752 1129.98L320.606 1174.03L305.364 1188.56ZM277.071 1215.54L262.217 1171.5L277.458 1156.97L292.312 1201.01L277.071 1215.54Z" fill="#FFB45B"/>
<path d="M655.236 369.667C652.883 369.178 650.44 369.373 648.198 370.231C645.957 371.088 644.01 372.571 642.591 374.504C640.965 376.606 639.867 379.069 639.39 381.684C638.914 384.3 639.072 386.993 639.851 389.539C642.224 390.029 644.687 389.823 646.942 388.946C649.197 388.068 651.148 386.556 652.558 384.593C654.166 382.502 655.248 380.056 655.714 377.459C656.179 374.862 656.016 372.19 655.236 369.667ZM621.546 379.837C619.994 382.145 618.987 384.776 618.601 387.531C618.214 390.286 618.459 393.094 619.316 395.745C619.988 398.424 621.288 400.908 623.11 402.989C624.931 405.071 627.221 406.691 629.791 407.716C631.255 405.36 632.166 402.701 632.455 399.941C632.744 397.18 632.404 394.388 631.46 391.775C630.841 389.158 629.624 386.718 627.904 384.647C626.183 382.576 624.007 380.93 621.546 379.837ZM656.45 402.445C655.808 404.969 654.493 407.27 652.644 409.103C650.794 410.936 648.48 412.233 645.949 412.855C643.442 413.47 640.811 413.369 638.356 412.565C635.9 411.76 633.719 410.284 632.059 408.304C632.68 405.782 633.985 403.481 635.831 401.653C637.677 399.826 639.992 398.542 642.522 397.944C645.053 397.345 647.702 397.454 650.178 398.259C652.654 399.065 654.861 400.535 656.559 402.508L656.45 402.445ZM609.585 413.101C608.279 415.878 607.617 418.916 607.65 421.987C607.683 425.058 608.41 428.084 609.776 430.839C610.878 433.605 612.657 436.052 614.95 437.956C617.242 439.86 619.975 441.16 622.898 441.738C624.204 438.961 624.866 435.924 624.833 432.852C624.8 429.781 624.073 426.755 622.707 424C621.605 421.235 619.826 418.788 617.533 416.884C615.241 414.979 612.508 413.679 609.585 413.101ZM650.786 431.831C650.535 434.562 649.597 437.185 648.059 439.454C646.52 441.724 644.432 443.567 641.987 444.812C639.413 445.953 636.566 446.341 633.776 445.932C630.986 445.524 628.368 444.335 626.224 442.503C626.519 439.643 627.568 436.913 629.264 434.593C630.96 432.273 633.242 430.444 635.879 429.293C638.361 428.352 641.052 428.092 643.673 428.538C646.294 428.984 648.749 430.121 650.786 431.831ZM597.147 449.701C596.408 453.048 596.411 456.518 597.154 459.868C597.898 463.217 599.366 466.366 601.454 469.093C603.229 471.73 605.669 473.853 608.526 475.249C611.383 476.645 614.557 477.264 617.727 477.044C618.49 473.728 618.504 470.283 617.767 466.958C617.03 463.634 615.561 460.513 613.467 457.823C611.69 455.166 609.248 453.018 606.385 451.594C603.522 450.169 600.337 449.516 597.147 449.701ZM644.901 457.332C645.207 460.575 644.723 463.842 643.489 466.854C642.254 469.865 640.307 472.532 637.814 474.625C635.491 476.572 632.65 477.802 629.637 478.166C626.623 478.529 623.567 478.011 620.839 476.673C620.465 473.446 620.912 470.179 622.14 467.175C623.368 464.171 625.337 461.527 627.863 459.488C630.156 457.466 633.006 456.18 636.044 455.795C639.082 455.411 642.167 455.946 644.901 457.332ZM597.683 485.411C597.388 488.78 597.843 492.173 599.016 495.348C600.188 498.524 602.05 501.402 604.466 503.777C606.519 506.149 609.177 507.921 612.158 508.904C615.138 509.886 618.327 510.042 621.385 509.355C621.68 505.986 621.225 502.593 620.052 499.418C618.88 496.242 617.018 493.364 614.602 490.989C612.566 488.595 609.909 486.806 606.924 485.822C603.938 484.838 600.74 484.696 597.683 485.411ZM645.476 485.696C646.223 488.914 646.178 492.263 645.344 495.455C644.51 498.648 642.912 501.59 640.688 504.027C638.744 506.417 636.12 508.161 633.16 509.032C630.201 509.902 627.046 509.858 624.108 508.904C623.361 505.686 623.407 502.337 624.241 499.144C625.075 495.951 626.672 493.01 628.896 490.573C630.862 488.21 633.487 486.486 636.439 485.618C639.39 484.749 642.536 484.777 645.476 485.696ZM604.946 528.04C605.635 531.646 607.167 535.04 609.417 537.946C611.667 540.852 614.571 543.188 617.894 544.763C620.882 546.375 624.279 547.069 627.657 546.756C631.035 546.443 634.242 545.138 636.874 543.006C636.185 539.4 634.653 536.006 632.403 533.1C630.153 530.194 627.249 527.858 623.927 526.283C620.938 524.671 617.541 523.977 614.163 524.29C610.785 524.603 607.578 525.908 604.946 528.04ZM653.122 506.582C654.945 509.873 656.004 513.53 656.22 517.282C656.437 521.034 655.805 524.785 654.373 528.256C653.322 531.551 651.361 534.482 648.716 536.712C646.07 538.941 642.847 540.379 639.416 540.861C637.457 537.572 636.276 533.88 635.965 530.069C635.654 526.258 636.221 522.428 637.622 518.874C638.748 515.553 640.809 512.628 643.557 510.448C646.306 508.269 649.626 506.927 653.122 506.582ZM622.773 560.151C623.497 564.16 625.189 567.935 627.701 571.148C630.214 574.361 633.472 576.916 637.192 578.59C640.53 580.359 644.322 581.085 648.073 580.674C651.825 580.263 655.363 578.734 658.228 576.286C657.502 572.254 655.799 568.46 653.266 565.234C650.733 562.008 647.448 559.45 643.7 557.784C640.373 556.03 636.596 555.318 632.863 555.74C629.13 556.163 625.613 557.7 622.773 560.151ZM675.901 536.64C677.774 540.254 678.826 544.233 678.985 548.296C679.144 552.358 678.404 556.403 676.82 560.144C675.613 563.734 673.434 566.918 670.525 569.345C667.616 571.771 664.089 573.344 660.335 573.89C658.456 570.257 657.405 566.256 657.257 562.173C657.109 558.091 657.868 554.028 659.479 550.277C660.66 546.694 662.825 543.515 665.728 541.104C668.632 538.693 672.156 537.146 675.901 536.64Z" fill="url(#paint13_linear_16_34)"/>
<path d="M945.465 369.667C947.818 369.178 950.26 369.373 952.502 370.231C954.744 371.088 956.69 372.571 958.109 374.504C959.736 376.606 960.833 379.069 961.31 381.684C961.786 384.3 961.629 386.993 960.849 389.539C958.476 390.029 956.014 389.823 953.758 388.946C951.503 388.068 949.553 386.556 948.142 384.593C946.534 382.502 945.452 380.056 944.987 377.459C944.521 374.862 944.685 372.19 945.465 369.667ZM979.154 379.837C980.706 382.145 981.713 384.776 982.1 387.531C982.486 390.286 982.241 393.094 981.384 395.745C980.712 398.424 979.412 400.908 977.591 402.989C975.769 405.071 973.479 406.691 970.91 407.716C969.445 405.36 968.534 402.701 968.245 399.941C967.956 397.18 968.296 394.388 969.24 391.775C969.859 389.158 971.076 386.718 972.797 384.647C974.517 382.576 976.693 380.93 979.154 379.837ZM944.25 402.445C944.892 404.969 946.207 407.27 948.057 409.103C949.906 410.936 952.22 412.233 954.751 412.855C957.258 413.47 959.889 413.369 962.344 412.565C964.8 411.76 966.981 410.284 968.641 408.304C968.02 405.782 966.715 403.481 964.869 401.653C963.024 399.826 960.708 398.542 958.178 397.944C955.647 397.345 952.998 397.454 950.523 398.259C948.047 399.065 945.839 400.535 944.142 402.508L944.25 402.445ZM991.115 413.101C992.422 415.878 993.083 418.916 993.05 421.987C993.017 425.058 992.29 428.084 990.924 430.839C989.822 433.605 988.043 436.052 985.751 437.956C983.458 439.86 980.725 441.16 977.802 441.738C976.496 438.961 975.834 435.924 975.867 432.852C975.9 429.781 976.627 426.755 977.993 424C979.095 421.235 980.874 418.788 983.167 416.884C985.459 414.979 988.192 413.679 991.115 413.101ZM949.915 431.831C950.165 434.562 951.103 437.185 952.642 439.454C954.18 441.724 956.269 443.567 958.714 444.812C961.288 445.953 964.134 446.341 966.924 445.932C969.714 445.524 972.332 444.335 974.477 442.503C974.181 439.643 973.132 436.913 971.436 434.593C969.74 432.273 967.458 430.444 964.822 429.293C962.339 428.352 959.648 428.092 957.027 428.538C954.407 428.984 951.951 430.121 949.915 431.831ZM1003.55 449.701C1004.29 453.048 1004.29 456.518 1003.55 459.868C1002.8 463.217 1001.33 466.366 999.246 469.093C997.471 471.73 995.031 473.853 992.174 475.249C989.317 476.645 986.143 477.264 982.973 477.044C982.21 473.728 982.196 470.283 982.933 466.958C983.67 463.634 985.139 460.513 987.234 457.823C989.011 455.166 991.452 453.018 994.315 451.594C997.178 450.169 1000.36 449.516 1003.55 449.701ZM955.8 457.332C955.493 460.575 955.977 463.842 957.212 466.854C958.446 469.865 960.393 472.532 962.886 474.625C965.209 476.572 968.05 477.802 971.063 478.166C974.077 478.529 977.133 478.011 979.861 476.673C980.236 473.446 979.788 470.179 978.56 467.175C977.332 464.171 975.364 461.527 972.837 459.488C970.544 457.466 967.694 456.18 964.656 455.795C961.619 455.411 958.533 455.946 955.8 457.332ZM1003.02 485.411C1003.31 488.78 1002.86 492.173 1001.68 495.348C1000.51 498.524 998.651 501.402 996.234 503.777C994.181 506.149 991.523 507.921 988.543 508.904C985.563 509.886 982.373 510.042 979.315 509.355C979.02 505.986 979.475 502.593 980.648 499.418C981.821 496.242 983.682 493.364 986.098 490.989C988.134 488.595 990.791 486.806 993.776 485.822C996.762 484.838 999.96 484.696 1003.02 485.411ZM955.224 485.696C954.477 488.914 954.523 492.263 955.357 495.455C956.191 498.648 957.788 501.59 960.012 504.027C961.957 506.417 964.581 508.161 967.54 509.032C970.499 509.902 973.655 509.858 976.592 508.904C977.339 505.686 977.294 502.337 976.46 499.144C975.626 495.951 974.028 493.01 971.804 490.573C969.838 488.21 967.213 486.486 964.261 485.618C961.31 484.749 958.164 484.777 955.224 485.696ZM995.754 528.04C995.065 531.646 993.533 535.04 991.283 537.946C989.033 540.852 986.129 543.188 982.807 544.763C979.818 546.375 976.421 547.069 973.043 546.756C969.665 546.443 966.458 545.138 963.826 543.006C964.515 539.4 966.047 536.006 968.297 533.1C970.547 530.194 973.451 527.858 976.774 526.283C979.762 524.671 983.159 523.977 986.537 524.29C989.915 524.603 993.122 525.908 995.754 528.04ZM947.578 506.582C945.755 509.873 944.696 513.53 944.48 517.282C944.263 521.034 944.895 524.785 946.328 528.256C947.378 531.551 949.339 534.482 951.985 536.712C954.63 538.941 957.853 540.379 961.284 540.861C963.244 537.572 964.424 533.88 964.735 530.069C965.046 526.258 964.479 522.428 963.078 518.874C961.952 515.553 959.891 512.628 957.143 510.448C954.394 508.269 951.074 506.927 947.578 506.582ZM977.927 560.151C977.203 564.16 975.511 567.935 972.999 571.148C970.486 574.361 967.228 576.916 963.508 578.59C960.17 580.359 956.379 581.085 952.627 580.674C948.876 580.263 945.337 578.734 942.473 576.286C943.198 572.254 944.902 568.46 947.434 565.234C949.967 562.008 953.252 559.45 957 557.784C960.327 556.03 964.104 555.318 967.837 555.74C971.571 556.163 975.087 557.7 977.927 560.151ZM924.799 536.64C922.927 540.254 921.874 544.233 921.715 548.296C921.556 552.358 922.296 556.403 923.881 560.144C925.087 563.734 927.266 566.918 930.175 569.345C933.085 571.771 936.611 573.344 940.365 573.89C942.244 570.257 943.295 566.256 943.443 562.173C943.591 558.091 942.832 554.028 941.221 550.277C940.04 546.694 937.875 543.515 934.972 541.104C932.069 538.693 928.544 537.146 924.799 536.64Z" fill="url(#paint14_linear_16_34)"/>
<path d="M602.114 558.708L605.633 563.234C605.892 563.564 606.227 563.826 606.61 563.997C606.993 564.167 607.412 564.241 607.83 564.212C608.248 564.183 608.653 564.052 609.009 563.83C609.365 563.609 609.661 563.303 609.871 562.941L620.164 545.185C620.375 544.823 620.494 544.415 620.509 543.996C620.524 543.577 620.435 543.161 620.251 542.785C620.066 542.409 619.791 542.084 619.451 541.839C619.111 541.595 618.715 541.438 618.3 541.384L612.61 540.632C612.107 540.564 611.595 540.648 611.139 540.871C610.683 541.094 610.303 541.448 610.049 541.888L601.932 555.889C601.68 556.324 601.563 556.824 601.596 557.326C601.628 557.828 601.809 558.308 602.114 558.708V558.708Z" fill="#AF66DA"/>
<path d="M618.303 541.383L612.61 540.632C612.107 540.564 611.595 540.648 611.139 540.871C610.683 541.094 610.303 541.448 610.049 541.888L609.757 542.387C610.529 542.491 611.263 542.783 611.895 543.239C612.526 543.694 613.036 544.298 613.378 544.997C613.721 545.696 613.886 546.469 613.859 547.247C613.831 548.025 613.613 548.784 613.222 549.458L605.397 562.933L605.637 563.248C605.895 563.578 606.23 563.84 606.613 564.01C606.995 564.181 607.414 564.255 607.831 564.226C608.249 564.198 608.654 564.067 609.009 563.847C609.365 563.626 609.662 563.321 609.872 562.959L620.172 545.198C620.38 544.835 620.496 544.425 620.51 544.006C620.524 543.587 620.435 543.171 620.25 542.795C620.066 542.418 619.792 542.092 619.453 541.846C619.113 541.6 618.719 541.441 618.303 541.383V541.383Z" fill="#9857BD"/>
<path d="M499.604 503.753L603.28 553.533L608.689 544.205L513.558 479.688L499.604 503.753Z" fill="#FED402"/>
<path d="M513.558 479.688L509.376 486.896L595.092 545.027C595.901 545.576 596.473 546.412 596.69 547.366C596.908 548.32 596.756 549.321 596.264 550.167V550.167L603.28 553.532L608.689 544.205L513.558 479.688Z" fill="#FAC600"/>
<path d="M458.273 501.761C465.18 497.992 473.097 496.489 480.904 497.465C487.165 498.302 493.107 500.727 498.165 504.511L513.493 478.055C507.131 475.089 501.693 470.452 497.759 464.637C493.826 458.823 491.545 452.05 491.159 445.04L458.273 501.761Z" fill="#FED402"/>
<path d="M458.937 500.612L458.273 501.761C458.991 501.368 460.048 500.823 461.388 500.248C460.542 500.345 459.722 500.47 458.937 500.612ZM498.321 465.458C494.06 459.462 491.578 452.384 491.159 445.04L482.917 459.253C484.101 462.47 485.711 465.514 487.705 468.303C488.203 469 488.715 469.667 489.234 470.301C496.165 478.773 497.275 490.586 491.786 500.053L491.503 500.542C493.855 501.632 496.087 502.962 498.165 504.511C504.701 493.243 506.963 489.341 513.493 478.07C507.442 475.231 502.218 470.889 498.321 465.458V465.458Z" fill="#FAC600"/>
<path d="M445.115 506.558C447.182 507.743 449.634 508.063 451.936 507.446C454.237 506.829 456.201 505.327 457.398 503.266L492.035 443.539C492.625 442.52 493.009 441.396 493.164 440.229C493.319 439.062 493.242 437.876 492.937 436.739C492.633 435.602 492.106 434.536 491.389 433.603C490.671 432.67 489.776 431.888 488.756 431.301C486.689 430.115 484.237 429.796 481.935 430.412C479.633 431.029 477.669 432.532 476.472 434.592L441.836 494.32C441.244 495.338 440.859 496.463 440.704 497.63C440.549 498.797 440.626 499.983 440.93 501.121C441.235 502.258 441.762 503.324 442.48 504.257C443.198 505.19 444.093 505.972 445.115 506.558V506.558Z" fill="#FFC700"/>
<path d="M488.753 431.294C486.856 430.21 484.63 429.851 482.489 430.285C480.347 430.72 478.436 431.917 477.112 433.655C477.464 433.794 477.806 433.956 478.137 434.139V434.139C479.157 434.725 480.052 435.508 480.77 436.441C481.487 437.374 482.014 438.439 482.318 439.577C482.623 440.714 482.7 441.9 482.545 443.067C482.39 444.233 482.006 445.358 481.416 446.376L446.781 506.111C446.587 506.435 446.371 506.746 446.136 507.043C448.152 507.886 450.406 507.968 452.477 507.274C454.549 506.579 456.298 505.155 457.398 503.266L492.034 443.539C492.626 442.52 493.011 441.395 493.166 440.227C493.321 439.059 493.244 437.872 492.94 436.734C492.635 435.596 492.108 434.53 491.389 433.596C490.671 432.663 489.775 431.88 488.753 431.294V431.294Z" fill="#FFA800"/>
<path d="M505.364 506.481L518.81 483.291C519.159 482.691 519.385 482.028 519.477 481.34C519.568 480.652 519.523 479.953 519.343 479.283C519.164 478.613 518.853 477.985 518.43 477.435C518.007 476.885 517.479 476.424 516.877 476.079C515.659 475.379 514.213 475.19 512.856 475.554C511.5 475.918 510.342 476.804 509.637 478.019L496.191 501.209C495.843 501.809 495.616 502.472 495.524 503.159C495.433 503.847 495.478 504.546 495.658 505.217C495.837 505.887 496.148 506.515 496.571 507.065C496.994 507.615 497.522 508.076 498.124 508.421C499.342 509.121 500.788 509.309 502.145 508.946C503.502 508.582 504.659 507.696 505.364 506.481V506.481Z" fill="#FFE600"/>
<path d="M516.878 476.079C515.849 475.49 514.653 475.262 513.48 475.43C512.307 475.599 511.223 476.155 510.402 477.01C510.81 477.126 511.201 477.291 511.569 477.501C512.171 477.847 512.699 478.307 513.122 478.857C513.545 479.407 513.856 480.035 514.035 480.706C514.215 481.376 514.26 482.075 514.169 482.763C514.077 483.451 513.851 484.114 513.502 484.714L500.056 507.903C499.844 508.27 499.587 508.609 499.291 508.912C500.43 509.244 501.646 509.184 502.747 508.743C503.848 508.303 504.769 507.506 505.365 506.481L518.81 483.291C519.159 482.691 519.386 482.028 519.477 481.341C519.569 480.653 519.523 479.954 519.344 479.283C519.164 478.613 518.854 477.985 518.431 477.435C518.007 476.885 517.48 476.424 516.878 476.079Z" fill="#FFA800"/>
<path d="M642.965 550.599L644.759 554.854C644.891 555.164 645.097 555.438 645.36 555.65C645.622 555.863 645.932 556.007 646.264 556.072C646.595 556.137 646.937 556.119 647.26 556.021C647.583 555.923 647.877 555.747 648.116 555.509L659.824 543.842C660.064 543.605 660.241 543.311 660.34 542.989C660.439 542.666 660.457 542.324 660.392 541.993C660.327 541.662 660.181 541.352 659.967 541.091C659.753 540.83 659.478 540.625 659.166 540.496L654.897 538.726C654.519 538.568 654.104 538.526 653.703 538.605C653.301 538.684 652.932 538.88 652.643 539.168L643.41 548.368C643.124 548.654 642.929 549.019 642.849 549.416C642.77 549.813 642.81 550.225 642.965 550.599V550.599Z" fill="#AF66DA"/>
<path d="M659.169 540.496L654.897 538.726C654.519 538.568 654.104 538.526 653.702 538.605C653.301 538.684 652.932 538.88 652.643 539.168L652.312 539.496C652.891 539.738 653.401 540.118 653.797 540.604C654.193 541.09 654.464 541.666 654.585 542.281C654.705 542.896 654.673 543.532 654.489 544.131C654.306 544.731 653.978 545.276 653.534 545.719L644.638 554.57L644.759 554.865C644.891 555.176 645.097 555.449 645.359 555.661C645.621 555.874 645.931 556.019 646.262 556.084C646.593 556.148 646.934 556.131 647.257 556.034C647.58 555.936 647.874 555.761 648.113 555.523L659.827 543.854C660.065 543.614 660.241 543.32 660.339 542.997C660.437 542.674 660.454 542.332 660.389 542C660.324 541.669 660.179 541.359 659.967 541.096C659.754 540.834 659.48 540.628 659.169 540.496V540.496Z" fill="#9857BD"/>
<path d="M574.677 486.483L644.95 546.816L651.102 540.688L590.548 470.672L574.677 486.483Z" fill="#FED402"/>
<path d="M590.548 470.672L585.792 475.407L640.354 538.493C640.869 539.089 641.139 539.858 641.109 540.646C641.08 541.433 640.753 542.18 640.194 542.736V542.736L644.95 546.816L651.102 540.688L590.548 470.672Z" fill="#FAC600"/>
<path d="M542.941 476.319C549.1 474.826 555.571 475.307 561.441 477.694C566.137 479.65 570.254 482.775 573.4 486.773L590.838 469.388C586.507 465.754 583.243 461.013 581.395 455.671C579.547 450.328 579.185 444.583 580.345 439.05L542.941 476.319Z" fill="#FED402"/>
<path d="M543.697 475.563L542.941 476.319C543.582 476.162 544.517 475.959 545.68 475.791C545.001 475.69 544.337 475.617 543.697 475.563ZM581.661 456.426C579.597 450.873 579.141 444.851 580.345 439.05L570.972 448.389C571.222 451.138 571.841 453.841 572.81 456.426C573.052 457.072 573.311 457.698 573.583 458.3C577.209 466.334 575.61 475.755 569.367 481.975L569.045 482.297C570.647 483.635 572.106 485.135 573.4 486.773C580.832 479.37 583.405 476.806 590.835 469.4C586.719 465.93 583.561 461.463 581.661 456.426V456.426Z" fill="#FAC600"/>
<path d="M531.705 477.307C533.066 478.661 534.907 479.42 536.826 479.42C538.745 479.42 540.586 478.661 541.947 477.307L581.34 438.065C582.011 437.396 582.544 436.601 582.908 435.726C583.272 434.85 583.459 433.912 583.459 432.964C583.459 432.016 583.272 431.077 582.908 430.201C582.544 429.326 582.011 428.531 581.34 427.862C579.979 426.509 578.138 425.749 576.219 425.749C574.3 425.749 572.459 426.509 571.098 427.862L531.705 467.104C531.033 467.773 530.499 468.568 530.135 469.443C529.771 470.319 529.583 471.258 529.583 472.206C529.583 473.154 529.771 474.093 530.135 474.968C530.499 475.844 531.033 476.639 531.705 477.307V477.307Z" fill="#FFC700"/>
<path d="M581.339 427.856C580.09 426.617 578.433 425.874 576.676 425.766C574.92 425.657 573.184 426.19 571.791 427.266C572.036 427.447 572.269 427.644 572.488 427.856V427.856C573.16 428.525 573.693 429.32 574.056 430.195C574.42 431.071 574.607 432.01 574.607 432.958C574.607 433.906 574.42 434.844 574.056 435.72C573.693 436.595 573.16 437.39 572.488 438.059L533.095 477.307C532.876 477.519 532.643 477.716 532.399 477.897C533.791 478.974 535.527 479.507 537.284 479.399C539.04 479.29 540.697 478.547 541.947 477.307L581.339 438.065C582.012 437.396 582.546 436.601 582.91 435.725C583.274 434.849 583.462 433.909 583.462 432.961C583.462 432.012 583.274 431.072 582.91 430.196C582.546 429.32 582.012 428.525 581.339 427.856V427.856Z" fill="#FFA800"/>
<path d="M578.589 489.806L593.882 474.569C594.278 474.175 594.593 473.707 594.807 473.191C595.022 472.675 595.133 472.121 595.133 471.563C595.133 471.004 595.022 470.45 594.807 469.934C594.593 469.418 594.278 468.95 593.882 468.556C593.08 467.758 591.995 467.31 590.864 467.31C589.732 467.31 588.647 467.758 587.845 468.556L572.553 483.793C572.156 484.187 571.842 484.655 571.627 485.171C571.413 485.687 571.302 486.24 571.302 486.799C571.302 487.358 571.413 487.911 571.627 488.427C571.842 488.943 572.156 489.412 572.553 489.806C573.354 490.604 574.44 491.052 575.571 491.052C576.702 491.052 577.788 490.604 578.589 489.806V489.806Z" fill="#FFE600"/>
<path d="M593.882 468.556C593.205 467.884 592.322 467.457 591.374 467.343C590.427 467.23 589.468 467.437 588.651 467.931C588.944 468.106 589.214 468.316 589.457 468.556C589.853 468.95 590.167 469.419 590.382 469.935C590.597 470.451 590.707 471.004 590.707 471.563C590.707 472.122 590.597 472.675 590.382 473.191C590.167 473.707 589.853 474.175 589.457 474.569L574.164 489.806C573.922 490.047 573.652 490.257 573.358 490.432C574.175 490.926 575.134 491.134 576.082 491.02C577.03 490.907 577.913 490.479 578.59 489.806L593.882 474.569C594.279 474.175 594.593 473.707 594.808 473.191C595.022 472.675 595.133 472.122 595.133 471.563C595.133 471.004 595.022 470.451 594.808 469.935C594.593 469.419 594.279 468.95 593.882 468.556Z" fill="#FFA800"/>
<path d="M996.656 558.708L993.137 563.234C992.878 563.564 992.543 563.826 992.16 563.997C991.777 564.167 991.358 564.241 990.94 564.212C990.522 564.183 990.117 564.052 989.761 563.83C989.405 563.609 989.109 563.303 988.899 562.941L978.606 545.185C978.395 544.823 978.276 544.415 978.261 543.996C978.246 543.577 978.335 543.161 978.519 542.785C978.704 542.409 978.979 542.084 979.319 541.839C979.659 541.595 980.055 541.438 980.47 541.384L986.16 540.632C986.663 540.564 987.175 540.648 987.631 540.871C988.087 541.094 988.467 541.448 988.721 541.888L996.838 555.889C997.09 556.324 997.207 556.824 997.174 557.326C997.142 557.828 996.961 558.308 996.656 558.708V558.708Z" fill="#AF66DA"/>
<path d="M980.467 541.383L986.16 540.632C986.663 540.564 987.175 540.648 987.631 540.871C988.087 541.094 988.467 541.448 988.721 541.888L989.013 542.387C988.241 542.491 987.507 542.783 986.876 543.239C986.244 543.694 985.734 544.298 985.392 544.997C985.049 545.696 984.884 546.469 984.911 547.247C984.939 548.025 985.157 548.784 985.548 549.458L993.373 562.933L993.133 563.248C992.875 563.578 992.54 563.84 992.157 564.01C991.775 564.181 991.356 564.255 990.939 564.226C990.521 564.198 990.116 564.067 989.761 563.847C989.405 563.626 989.108 563.321 988.898 562.959L978.598 545.198C978.39 544.835 978.274 544.425 978.26 544.006C978.246 543.587 978.335 543.171 978.52 542.795C978.704 542.418 978.978 542.092 979.317 541.846C979.657 541.6 980.051 541.441 980.467 541.383V541.383Z" fill="#9857BD"/>
<path d="M1099.17 503.753L995.49 553.533L990.081 544.205L1085.21 479.688L1099.17 503.753Z" fill="#FED402"/>
<path d="M1085.21 479.688L1089.39 486.896L1003.68 545.027C1002.87 545.576 1002.3 546.412 1002.08 547.366C1001.86 548.32 1002.01 549.321 1002.51 550.167V550.167L995.489 553.532L990.08 544.205L1085.21 479.688Z" fill="#FAC600"/>
<path d="M1140.5 501.761C1133.59 497.992 1125.67 496.489 1117.87 497.465C1111.61 498.302 1105.66 500.727 1100.6 504.511L1085.28 478.055C1091.64 475.089 1097.08 470.452 1101.01 464.637C1104.94 458.823 1107.23 452.05 1107.61 445.04L1140.5 501.761Z" fill="#FED402"/>
<path d="M1139.83 500.612L1140.5 501.761C1139.78 501.368 1138.72 500.823 1137.38 500.248C1138.23 500.345 1139.05 500.47 1139.83 500.612ZM1100.45 465.458C1104.71 459.462 1107.19 452.384 1107.61 445.04L1115.85 459.253C1114.67 462.47 1113.06 465.514 1111.07 468.303C1110.57 469 1110.06 469.667 1109.54 470.301C1102.6 478.773 1101.5 490.586 1106.98 500.053L1107.27 500.542C1104.92 501.632 1102.68 502.962 1100.6 504.511C1094.07 493.243 1091.81 489.341 1085.28 478.07C1091.33 475.231 1096.55 470.889 1100.45 465.458V465.458Z" fill="#FAC600"/>
<path d="M1153.66 506.558C1151.59 507.743 1149.14 508.063 1146.83 507.446C1144.53 506.829 1142.57 505.327 1141.37 503.266L1106.74 443.539C1106.14 442.52 1105.76 441.396 1105.61 440.229C1105.45 439.062 1105.53 437.876 1105.83 436.739C1106.14 435.602 1106.66 434.536 1107.38 433.603C1108.1 432.67 1108.99 431.888 1110.01 431.301C1112.08 430.115 1114.53 429.796 1116.84 430.412C1119.14 431.029 1121.1 432.532 1122.3 434.592L1156.93 494.32C1157.53 495.338 1157.91 496.463 1158.07 497.63C1158.22 498.797 1158.14 499.983 1157.84 501.121C1157.54 502.258 1157.01 503.324 1156.29 504.257C1155.57 505.19 1154.68 505.972 1153.66 506.558V506.558Z" fill="#FFC700"/>
<path d="M1110.02 431.294C1111.91 430.21 1114.14 429.851 1116.28 430.285C1118.42 430.72 1120.33 431.917 1121.66 433.655C1121.31 433.794 1120.96 433.956 1120.63 434.139V434.139C1119.61 434.725 1118.72 435.508 1118 436.441C1117.28 437.374 1116.76 438.439 1116.45 439.577C1116.15 440.714 1116.07 441.9 1116.22 443.067C1116.38 444.233 1116.76 445.358 1117.35 446.376L1151.99 506.111C1152.18 506.435 1152.4 506.746 1152.63 507.043C1150.62 507.886 1148.36 507.968 1146.29 507.274C1144.22 506.579 1142.47 505.155 1141.37 503.266L1106.74 443.539C1106.14 442.52 1105.76 441.395 1105.6 440.227C1105.45 439.059 1105.53 437.872 1105.83 436.734C1106.14 435.596 1106.66 434.53 1107.38 433.596C1108.1 432.663 1108.99 431.88 1110.02 431.294V431.294Z" fill="#FFA800"/>
<path d="M1093.41 506.481L1079.96 483.291C1079.61 482.691 1079.38 482.028 1079.29 481.34C1079.2 480.652 1079.25 479.953 1079.43 479.283C1079.61 478.613 1079.92 477.985 1080.34 477.435C1080.76 476.885 1081.29 476.424 1081.89 476.079C1083.11 475.379 1084.56 475.19 1085.91 475.554C1087.27 475.918 1088.43 476.804 1089.13 478.019L1102.58 501.209C1102.93 501.809 1103.15 502.472 1103.25 503.159C1103.34 503.847 1103.29 504.546 1103.11 505.217C1102.93 505.887 1102.62 506.515 1102.2 507.065C1101.78 507.615 1101.25 508.076 1100.65 508.421C1099.43 509.121 1097.98 509.309 1096.62 508.946C1095.27 508.582 1094.11 507.696 1093.41 506.481V506.481Z" fill="#FFE600"/>
<path d="M1081.89 476.079C1082.92 475.49 1084.12 475.262 1085.29 475.43C1086.46 475.599 1087.55 476.155 1088.37 477.01C1087.96 477.126 1087.57 477.291 1087.2 477.501C1086.6 477.847 1086.07 478.307 1085.65 478.857C1085.22 479.407 1084.91 480.035 1084.73 480.706C1084.56 481.376 1084.51 482.075 1084.6 482.763C1084.69 483.451 1084.92 484.114 1085.27 484.714L1098.71 507.903C1098.93 508.27 1099.18 508.609 1099.48 508.912C1098.34 509.244 1097.12 509.184 1096.02 508.743C1094.92 508.303 1094 507.506 1093.41 506.481L1079.96 483.291C1079.61 482.691 1079.38 482.028 1079.29 481.341C1079.2 480.653 1079.25 479.954 1079.43 479.283C1079.61 478.613 1079.92 477.985 1080.34 477.435C1080.76 476.885 1081.29 476.424 1081.89 476.079Z" fill="#FFA800"/>
<path d="M955.806 550.599L954.012 554.854C953.879 555.164 953.673 555.438 953.411 555.65C953.148 555.863 952.838 556.007 952.507 556.072C952.175 556.137 951.833 556.119 951.51 556.021C951.187 555.923 950.893 555.747 950.654 555.509L938.946 543.842C938.706 543.605 938.529 543.311 938.43 542.989C938.331 542.666 938.314 542.324 938.379 541.993C938.444 541.662 938.59 541.352 938.803 541.091C939.017 540.83 939.292 540.625 939.604 540.496L943.874 538.726C944.251 538.568 944.667 538.526 945.068 538.605C945.469 538.684 945.838 538.88 946.128 539.168L955.36 548.368C955.647 548.654 955.842 549.019 955.921 549.416C956 549.813 955.96 550.225 955.806 550.599V550.599Z" fill="#AF66DA"/>
<path d="M939.601 540.496L943.874 538.726C944.251 538.568 944.667 538.526 945.068 538.605C945.469 538.684 945.838 538.88 946.128 539.168L946.458 539.496C945.88 539.738 945.37 540.118 944.973 540.604C944.577 541.09 944.307 541.666 944.186 542.281C944.065 542.896 944.098 543.532 944.281 544.131C944.464 544.731 944.793 545.276 945.237 545.719L954.133 554.57L954.012 554.865C953.88 555.176 953.674 555.449 953.412 555.661C953.15 555.874 952.84 556.019 952.509 556.084C952.178 556.148 951.836 556.131 951.513 556.034C951.19 555.936 950.896 555.761 950.657 555.523L938.943 543.854C938.705 543.614 938.529 543.32 938.431 542.997C938.333 542.674 938.316 542.332 938.381 542C938.446 541.669 938.591 541.359 938.804 541.096C939.017 540.834 939.29 540.628 939.601 540.496V540.496Z" fill="#9857BD"/>
<path d="M1024.09 486.483L953.82 546.816L947.668 540.688L1008.22 470.672L1024.09 486.483Z" fill="#FED402"/>
<path d="M1008.22 470.672L1012.98 475.407L958.417 538.493C957.901 539.089 957.631 539.858 957.661 540.646C957.69 541.433 958.017 542.18 958.576 542.736V542.736L953.82 546.816L947.668 540.688L1008.22 470.672Z" fill="#FAC600"/>
<path d="M1055.83 476.319C1049.67 474.826 1043.2 475.307 1037.33 477.694C1032.63 479.65 1028.52 482.775 1025.37 486.773L1007.93 469.388C1012.26 465.754 1015.53 461.013 1017.38 455.671C1019.22 450.328 1019.59 444.583 1018.43 439.05L1055.83 476.319Z" fill="#FED402"/>
<path d="M1055.07 475.563L1055.83 476.319C1055.19 476.162 1054.25 475.959 1053.09 475.791C1053.77 475.69 1054.43 475.617 1055.07 475.563ZM1017.11 456.426C1019.17 450.873 1019.63 444.851 1018.43 439.05L1027.8 448.389C1027.55 451.138 1026.93 453.841 1025.96 456.426C1025.72 457.072 1025.46 457.698 1025.19 458.3C1021.56 466.334 1023.16 475.755 1029.4 481.975L1029.73 482.297C1028.12 483.635 1026.66 485.135 1025.37 486.773C1017.94 479.37 1015.37 476.806 1007.94 469.4C1012.05 465.93 1015.21 461.463 1017.11 456.426V456.426Z" fill="#FAC600"/>
<path d="M1067.06 477.307C1065.7 478.661 1063.86 479.42 1061.94 479.42C1060.03 479.42 1058.18 478.661 1056.82 477.307L1017.43 438.065C1016.76 437.396 1016.23 436.601 1015.86 435.726C1015.5 434.85 1015.31 433.912 1015.31 432.964C1015.31 432.016 1015.5 431.077 1015.86 430.201C1016.23 429.326 1016.76 428.531 1017.43 427.862C1018.79 426.509 1020.63 425.749 1022.55 425.749C1024.47 425.749 1026.31 426.509 1027.67 427.862L1067.06 467.104C1067.74 467.773 1068.27 468.568 1068.64 469.443C1069 470.319 1069.19 471.258 1069.19 472.206C1069.19 473.154 1069 474.093 1068.64 474.968C1068.27 475.844 1067.74 476.639 1067.06 477.307V477.307Z" fill="#FFC700"/>
<path d="M1017.43 427.856C1018.68 426.617 1020.34 425.874 1022.09 425.766C1023.85 425.657 1025.59 426.19 1026.98 427.266C1026.73 427.447 1026.5 427.644 1026.28 427.856V427.856C1025.61 428.525 1025.08 429.32 1024.71 430.195C1024.35 431.071 1024.16 432.01 1024.16 432.958C1024.16 433.906 1024.35 434.844 1024.71 435.72C1025.08 436.595 1025.61 437.39 1026.28 438.059L1065.68 477.307C1065.89 477.519 1066.13 477.716 1066.37 477.897C1064.98 478.974 1063.24 479.507 1061.49 479.399C1059.73 479.29 1058.07 478.547 1056.82 477.307L1017.43 438.065C1016.76 437.396 1016.22 436.601 1015.86 435.725C1015.5 434.849 1015.31 433.909 1015.31 432.961C1015.31 432.012 1015.5 431.072 1015.86 430.196C1016.22 429.32 1016.76 428.525 1017.43 427.856V427.856Z" fill="#FFA800"/>
<path d="M1020.18 489.806L1004.89 474.569C1004.49 474.175 1004.18 473.707 1003.96 473.191C1003.75 472.675 1003.64 472.121 1003.64 471.563C1003.64 471.004 1003.75 470.45 1003.96 469.934C1004.18 469.418 1004.49 468.95 1004.89 468.556C1005.69 467.758 1006.78 467.31 1007.91 467.31C1009.04 467.31 1010.12 467.758 1010.92 468.556L1026.22 483.793C1026.61 484.187 1026.93 484.655 1027.14 485.171C1027.36 485.687 1027.47 486.24 1027.47 486.799C1027.47 487.358 1027.36 487.911 1027.14 488.427C1026.93 488.943 1026.61 489.412 1026.22 489.806C1025.42 490.604 1024.33 491.052 1023.2 491.052C1022.07 491.052 1020.98 490.604 1020.18 489.806V489.806Z" fill="#FFE600"/>
<path d="M1004.89 468.556C1005.57 467.884 1006.45 467.457 1007.4 467.343C1008.34 467.23 1009.3 467.437 1010.12 467.931C1009.83 468.106 1009.56 468.316 1009.31 468.556C1008.92 468.95 1008.6 469.419 1008.39 469.935C1008.17 470.451 1008.06 471.004 1008.06 471.563C1008.06 472.122 1008.17 472.675 1008.39 473.191C1008.6 473.707 1008.92 474.175 1009.31 474.569L1024.61 489.806C1024.85 490.047 1025.12 490.257 1025.41 490.432C1024.6 490.926 1023.64 491.134 1022.69 491.02C1021.74 490.907 1020.86 490.479 1020.18 489.806L1004.89 474.569C1004.49 474.175 1004.18 473.707 1003.96 473.191C1003.75 472.675 1003.64 472.122 1003.64 471.563C1003.64 471.004 1003.75 470.451 1003.96 469.935C1004.18 469.419 1004.49 468.95 1004.89 468.556Z" fill="#FFA800"/>
<g filter="url(#filter2_d_16_34)">
<path fill-rule="evenodd" clip-rule="evenodd" d="M603.666 596.087L601.469 604.711C600.099 610.088 597.989 615.25 595.201 620.048L568.323 666.292C557.489 684.932 557.489 707.952 568.323 726.593L595.201 772.837C597.989 777.635 600.099 782.796 601.469 788.174L614.619 839.786C620.006 860.931 636.448 877.484 657.556 883.014L707.779 896.171C713.253 897.605 718.497 899.807 723.355 902.71L767.719 929.225C786.676 940.554 810.324 940.554 829.281 929.225L873.646 902.71C878.503 899.807 883.747 897.605 889.221 896.171L939.444 883.014C960.552 877.484 976.994 860.931 982.382 839.786L995.531 788.174C996.901 782.796 999.011 777.635 1001.8 772.837L1028.68 726.593C1039.51 707.952 1039.51 684.932 1028.68 666.292L1001.8 620.048C999.011 615.25 996.901 610.088 995.531 604.711L993.334 596.087H603.666Z" fill="#5282FF"/>
</g>
<g filter="url(#filter3_i_16_34)">
<mask id="path-78-inside-1_16_34" fill="white">
<path fill-rule="evenodd" clip-rule="evenodd" d="M614.984 552C614.883 552.364 614.787 552.728 614.693 553.095L601.515 604.699C600.14 610.084 598.023 615.253 595.225 620.056L568.319 666.24C557.445 684.907 557.445 707.978 568.319 726.645L595.225 772.829C598.023 777.632 600.14 782.801 601.515 788.186L614.693 839.79C620.092 860.933 636.543 877.477 657.655 882.995L708.1 896.18C713.566 897.609 718.803 899.802 723.656 902.696L768.272 929.299C787.202 940.586 810.798 940.586 829.728 929.299L874.344 902.696C879.197 899.802 884.434 897.609 889.9 896.18L940.345 882.995C961.457 877.477 977.908 860.932 983.307 839.79L996.485 788.186C997.86 782.801 999.977 777.632 1002.78 772.829L1029.68 726.645C1040.56 707.978 1040.56 684.907 1029.68 666.24L1002.78 620.056C999.977 615.253 997.86 610.084 996.485 604.699L983.307 553.094C983.214 552.728 983.117 552.364 983.017 552H614.984Z"/>
</mask>
<path d="M614.693 553.095L634.071 558.043L634.071 558.043L614.693 553.095ZM614.984 552V532H599.748L595.702 546.688L614.984 552ZM601.515 604.699L582.137 599.75L582.137 599.75L601.515 604.699ZM595.225 620.056L577.943 609.988L577.943 609.988L595.225 620.056ZM568.319 666.24L585.601 676.307L585.601 676.307L568.319 666.24ZM568.319 726.645L551.038 736.713L551.038 736.713L568.319 726.645ZM595.225 772.829L612.506 762.762L612.506 762.762L595.225 772.829ZM601.515 788.186L582.137 793.135L582.137 793.135L601.515 788.186ZM614.693 839.79L634.071 834.842L634.071 834.842L614.693 839.79ZM657.655 882.995L662.712 863.645L662.712 863.645L657.655 882.995ZM708.1 896.18L713.158 876.83L713.158 876.83L708.1 896.18ZM723.656 902.696L713.413 919.874L713.413 919.874L723.656 902.696ZM768.272 929.299L758.029 946.477L758.029 946.477L768.272 929.299ZM829.728 929.299L839.971 946.477L839.971 946.477L829.728 929.299ZM874.344 902.696L884.587 919.874L884.587 919.874L874.344 902.696ZM889.9 896.18L884.842 876.83L884.842 876.83L889.9 896.18ZM940.345 882.995L945.403 902.345L945.403 902.345L940.345 882.995ZM983.307 839.79L1002.69 844.739L1002.69 844.739L983.307 839.79ZM996.485 788.186L977.107 783.238L977.107 783.238L996.485 788.186ZM1002.78 772.829L985.494 762.762L985.494 762.762L1002.78 772.829ZM1029.68 726.645L1012.4 716.578L1012.4 716.578L1029.68 726.645ZM1029.68 666.24L1012.4 676.307L1012.4 676.307L1029.68 666.24ZM1002.78 620.056L1020.06 609.988L1020.06 609.988L1002.78 620.056ZM996.485 604.699L977.107 609.647L977.107 609.647L996.485 604.699ZM983.307 553.094L963.929 558.043L963.929 558.043L983.307 553.094ZM983.017 552L1002.3 546.689L998.252 532H983.017V552ZM634.071 558.043C634.134 557.798 634.198 557.555 634.265 557.312L595.702 546.688C595.568 547.172 595.44 547.658 595.315 548.146L634.071 558.043ZM620.893 609.647L634.071 558.043L595.315 548.146L582.137 599.75L620.893 609.647ZM612.506 630.123C616.237 623.719 619.059 616.828 620.893 609.647L582.137 599.75C581.22 603.341 579.809 606.786 577.943 609.988L612.506 630.123ZM585.601 676.307L612.506 630.123L577.943 609.988L551.038 656.172L585.601 676.307ZM585.601 716.578C578.351 704.133 578.351 688.752 585.601 676.307L551.038 656.172C536.538 681.061 536.538 711.824 551.038 736.713L585.601 716.578ZM612.506 762.762L585.601 716.578L551.038 736.713L577.943 782.897L612.506 762.762ZM620.893 783.238C619.059 776.057 616.237 769.166 612.506 762.762L577.943 782.897C579.809 786.099 581.22 789.544 582.137 793.135L620.893 783.238ZM634.071 834.842L620.893 783.238L582.137 793.135L595.315 844.739L634.071 834.842ZM662.712 863.645C648.638 859.966 637.671 848.937 634.071 834.842L595.315 844.739C602.514 872.928 624.449 894.987 652.597 902.345L662.712 863.645ZM713.158 876.83L662.712 863.645L652.597 902.345L703.043 915.53L713.158 876.83ZM733.899 885.517C727.428 881.659 720.446 878.735 713.158 876.83L703.043 915.53C706.687 916.482 710.178 917.945 713.413 919.874L733.899 885.517ZM778.515 912.121L733.899 885.517L713.413 919.874L758.029 946.477L778.515 912.121ZM819.486 912.121C806.865 919.646 791.135 919.646 778.515 912.121L758.029 946.477C783.27 961.527 814.73 961.527 839.971 946.477L819.486 912.121ZM864.102 885.517L819.486 912.121L839.971 946.477L884.587 919.874L864.102 885.517ZM884.842 876.83C877.554 878.735 870.572 881.659 864.102 885.517L884.587 919.874C887.822 917.945 891.313 916.482 894.958 915.53L884.842 876.83ZM935.288 863.645L884.842 876.83L894.958 915.53L945.403 902.345L935.288 863.645ZM963.929 834.842C960.33 848.937 949.362 859.966 935.288 863.645L945.403 902.345C973.551 894.987 995.487 872.928 1002.69 844.739L963.929 834.842ZM977.107 783.238L963.929 834.842L1002.69 844.739L1015.86 793.135L977.107 783.238ZM985.494 762.762C981.763 769.165 978.941 776.057 977.107 783.238L1015.86 793.135C1016.78 789.544 1018.19 786.099 1020.06 782.897L985.494 762.762ZM1012.4 716.578L985.494 762.762L1020.06 782.897L1046.96 736.713L1012.4 716.578ZM1012.4 676.307C1019.65 688.752 1019.65 704.133 1012.4 716.578L1046.96 736.713C1061.46 711.824 1061.46 681.061 1046.96 656.172L1012.4 676.307ZM985.494 630.123L1012.4 676.307L1046.96 656.172L1020.06 609.988L985.494 630.123ZM977.107 609.647C978.941 616.828 981.763 623.719 985.494 630.123L1020.06 609.988C1018.19 606.786 1016.78 603.341 1015.86 599.75L977.107 609.647ZM963.929 558.043L977.107 609.647L1015.86 599.75L1002.69 548.146L963.929 558.043ZM963.735 557.311C963.802 557.555 963.866 557.798 963.929 558.043L1002.69 548.146C1002.56 547.658 1002.43 547.172 1002.3 546.689L963.735 557.311ZM983.017 532H614.984V572H983.017V532Z" fill="#309AF9" mask="url(#path-78-inside-1_16_34)"/>
</g>
<path d="M453.303 582.929L583.544 582.929V696.223L453.303 696.223L492.088 639.576L453.303 582.929Z" fill="#FA374B"/>
<path d="M453.065 582.929H583.353V595.517H461.876L453.065 582.929Z" fill="#FFE17A"/>
<path d="M453.065 696.223H583.353V683.635H461.876L453.065 696.223Z" fill="#FFE17A"/>
<path d="M583.544 696.223L520.603 639.576H583.544V696.223Z" fill="#973842"/>
<path d="M1144.11 582.929L1013.87 582.929V696.223L1144.11 696.223L1105.33 639.576L1144.11 582.929Z" fill="#FA374B"/>
<path d="M1144.35 582.929H1014.06V595.517H1135.54L1144.35 582.929Z" fill="#FFE17A"/>
<path d="M1144.35 696.223H1014.06V683.635H1135.54L1144.35 696.223Z" fill="#FFE17A"/>
<path d="M1013.87 696.223L1076.81 639.576H1013.87V696.223Z" fill="#973842"/>
<rect x="520.603" y="526.282" width="556.399" height="113.294" fill="#FF6261"/>
<rect x="584" y="639" width="430" height="13" fill="#3661F3"/>
<rect x="520.603" y="526.282" width="556.399" height="12.5882" fill="#FFE17A"/>
<rect x="520.603" y="626.988" width="556.399" height="12.5882" fill="#FFE17A"/>
<g filter="url(#filter4_d_16_34)">
<path d="M568.438 564.047L573.877 575.444L586.397 577.094L577.238 585.788L579.537 598.205L568.438 592.181L557.34 598.205L559.639 585.788L550.48 577.094L563 575.444L568.438 564.047Z" fill="url(#paint15_angular_16_34)"/>
</g>
<g filter="url(#filter5_d_16_34)">
<path d="M1031.68 564.047L1037.12 575.444L1049.64 577.094L1040.48 585.788L1042.78 598.205L1031.68 592.181L1020.59 598.205L1022.89 585.788L1013.73 577.094L1026.25 575.444L1031.68 564.047Z" fill="url(#paint16_angular_16_34)"/>
</g>
<path d="M741.557 734.371C741.557 728.848 746.034 724.371 751.557 724.371H890.326C898.004 724.371 902.818 732.665 899.009 739.332L866.443 796.332C864.662 799.448 861.349 801.371 857.76 801.371H751.557C746.034 801.371 741.557 796.894 741.557 791.371V734.371Z" fill="#2E5EC4"/>
<path d="M734.741 770.727H746.263V782.249H734.741V770.727Z" fill="#FFB300"/>
<path d="M749.397 786.576H731.599V781.001C731.599 779.954 732.455 779.098 733.503 779.098H747.502C748.55 779.098 749.406 779.954 749.406 781.001V786.576H749.397Z" fill="#FFE606"/>
<path d="M758.359 806.559H722.636C721.589 806.559 720.733 805.703 720.733 804.656V788.434C720.733 787.386 721.589 786.53 722.636 786.53H758.368C759.416 786.53 760.272 787.386 760.272 788.434V804.656C760.263 805.712 759.416 806.559 758.359 806.559Z" fill="#FFCA28"/>
<path d="M752.002 801.805H728.994C728.466 801.805 728.047 801.377 728.047 800.858V791.667C728.047 791.139 728.475 790.72 728.994 790.72H752.002C752.53 790.72 752.949 791.148 752.949 791.667V800.849C752.949 801.377 752.53 801.805 752.002 801.805Z" fill="#FFE500"/>
<path d="M717.29 724.658V750.599C709.657 749.533 703.764 742.966 703.764 735.041V724.658H717.29M722.044 719.903H702.807C700.703 719.903 699 721.607 699 723.711V735.051C699 746.354 708.163 755.517 719.467 755.517H722.044V719.903V719.903ZM777.232 724.658V734.568C777.232 742.583 771.366 749.26 763.706 750.526V724.658H777.232M778.188 719.903H758.951V755.508H761.055C772.614 755.508 781.986 746.135 781.986 734.577V723.711C781.995 721.607 780.283 719.903 778.188 719.903V719.903Z" fill="#FFE600"/>
<path d="M740.498 773.013C725.678 773.013 713.665 760.999 713.665 746.18V716.514C713.665 715.521 714.475 714.711 715.468 714.711H765.519C766.511 714.711 767.322 715.521 767.322 716.514V746.18C767.331 760.999 755.317 773.013 740.498 773.013Z" fill="#FFCA28"/>
<path d="M765.573 755.753L752.166 738.137L733.357 751.618L748.568 771.784C752.566 770.463 755.363 768.696 758.031 766.474C761.21 763.823 763.761 760.298 765.573 755.753V755.753Z" fill="#FFB806"/>
<path d="M741.436 730.24L744.287 736.006C744.423 736.288 744.697 736.48 745.006 736.525L751.373 737.454C752.156 737.563 752.466 738.529 751.901 739.075L747.293 743.566C747.065 743.785 746.965 744.103 747.019 744.404L748.103 750.743C748.24 751.518 747.42 752.11 746.719 751.745L740.58 748.521L734.441 751.745C733.739 752.11 732.929 751.518 733.056 750.743L734.14 744.404C734.195 744.094 734.095 743.785 733.867 743.566L729.258 739.075C728.693 738.529 729.003 737.563 729.786 737.454L736.153 736.525C736.463 736.48 736.727 736.288 736.873 736.006L739.724 730.24C740.079 729.53 741.09 729.53 741.436 730.24V730.24Z" fill="#FFF8E1"/>
<g filter="url(#filter6_d_16_34)">
<rect x="711.572" y="714" width="57.8508" height="4.72252" rx="2" fill="#FFDA58"/>
</g>
<rect x="764.1" y="368.413" width="73.8644" height="72.9745" rx="4" transform="rotate(45 764.1 368.413)" fill="#DE657C"/>
<rect x="764.1" y="368.413" width="73.8644" height="70.3047" rx="4" transform="rotate(45 764.1 368.413)" fill="url(#paint17_linear_16_34)"/>
<rect width="73.8644" height="72.9745" rx="4" transform="matrix(-0.707107 0.707107 0.707107 0.707107 834.144 368.413)" fill="#DE657C"/>
<rect width="73.8644" height="70.3047" rx="4" transform="matrix(-0.707107 0.707107 0.707107 0.707107 834.144 368.413)" fill="url(#paint18_linear_16_34)"/>
<path d="M881.163 368.882C873.232 415.28 867.965 442.022 867.441 450.394C867.4 451.062 867.106 451.69 866.618 452.148C866.131 452.607 865.486 452.862 864.816 452.861H733.284C732.614 452.862 731.97 452.607 731.482 452.148C730.994 451.69 730.7 451.062 730.66 450.394C730.66 450.394 730.66 452.148 716.937 368.882L764.734 398.54C765.011 398.869 765.365 399.125 765.765 399.285C766.164 399.445 766.597 399.504 767.025 399.458C767.452 399.411 767.862 399.26 768.218 399.017C768.573 398.775 768.864 398.449 769.064 398.068L799.05 336.398L828.532 398.068C828.731 398.449 829.022 398.775 829.378 399.017C829.733 399.26 830.143 399.411 830.571 399.458C830.999 399.504 831.431 399.445 831.831 399.285C832.23 399.125 832.584 398.869 832.862 398.54L881.163 368.882Z" fill="url(#paint19_linear_16_34)"/>
<path d="M822.844 386.319L799.05 336.398V400.782L822.844 386.319Z" fill="url(#paint20_linear_16_34)"/>
<path d="M798.35 348.995C804.148 348.995 808.848 344.295 808.848 338.497C808.848 332.7 804.148 328 798.35 328C792.553 328 787.853 332.7 787.853 338.497C787.853 344.295 792.553 348.995 798.35 348.995Z" fill="#EC142A"/>
<path d="M792.345 334.842C792.042 334.466 792.1 333.916 792.476 333.612L796.919 330.018C797.295 329.714 797.846 329.773 798.15 330.148V330.148C798.481 330.558 798.378 331.164 797.931 331.442L795.895 332.706C795.684 332.837 795.49 332.994 795.318 333.173L793.656 334.899C793.291 335.278 792.676 335.251 792.345 334.842V334.842Z" fill="white"/>
<path d="M717.17 382.586C721.937 382.586 725.802 378.722 725.802 373.955C725.802 369.188 721.937 365.324 717.17 365.324C712.404 365.324 708.539 369.188 708.539 373.955C708.539 378.722 712.404 382.586 717.17 382.586Z" fill="#146AEC"/>
<path d="M712.233 370.95C711.983 370.641 712.031 370.188 712.34 369.938L715.994 366.984C716.303 366.734 716.756 366.782 717.006 367.091V367.091C717.278 367.427 717.194 367.926 716.826 368.154L715.152 369.194C714.978 369.301 714.819 369.43 714.678 369.577L713.311 370.997C713.011 371.308 712.505 371.287 712.233 370.95V370.95Z" fill="white"/>
<path d="M880.463 382.586C875.696 382.586 871.832 378.722 871.832 373.955C871.832 369.188 875.696 365.324 880.463 365.324C885.23 365.324 889.094 369.188 889.094 373.955C889.094 378.722 885.23 382.586 880.463 382.586Z" fill="#1CC760"/>
<path d="M885.401 370.95C885.65 370.641 885.602 370.188 885.293 369.938L881.64 366.984C881.331 366.734 880.878 366.782 880.628 367.091V367.091C880.356 367.427 880.44 367.926 880.808 368.154L882.482 369.194C882.655 369.301 882.815 369.43 882.956 369.577L884.323 370.997C884.623 371.308 885.128 371.287 885.401 370.95V370.95Z" fill="white"/>
<g filter="url(#filter7_f_16_34)">
<path fill-rule="evenodd" clip-rule="evenodd" d="M816.906 420.965L816.906 420.965L798.975 438.897V438.897L798.975 438.897L781.79 420.965L781.79 420.965L798.975 389.585L798.975 389.585V389.585L816.906 420.965Z" fill="#C41A2B" fill-opacity="0.81"/>
</g>
<path d="M799.012 436.433L783.545 420.293L799.012 392.048L815.152 420.293L799.012 436.433Z" fill="#D20016"/>
<path d="M799.012 424.328V392.048L783.545 420.293L799.012 424.328Z" fill="#FFDEE2"/>
<path d="M799.012 424.328L815.152 420.293L799.012 392.048V424.328Z" fill="#EC142A"/>
<path d="M799.012 436.433L783.545 420.293L799.012 424.328V436.433Z" fill="#EC142A"/>
<rect x="730.934" y="445.571" width="136.233" height="11.1972" rx="5.5986" fill="#FF9900"/>
<g filter="url(#filter8_d_16_34)">
<rect x="722.536" y="454.902" width="153.029" height="21.4613" rx="10" fill="#FFA800"/>
</g>
<rect x="745.863" y="454.902" width="33.5916" height="21.4613" fill="url(#paint21_linear_16_34)"/>
<rect width="33.5916" height="21.4613" transform="matrix(-1 0 0 1 850.371 454.902)" fill="url(#paint22_linear_16_34)"/>
<rect x="779.455" y="454.902" width="37.324" height="21.4613" fill="#FFC651"/>
<rect x="735.599" y="399.849" width="32.6585" height="55.0529" fill="url(#paint23_linear_16_34)"/>
<rect width="32.6585" height="55.0529" transform="matrix(-1 0 0 1 863.434 399.849)" fill="url(#paint24_linear_16_34)"/>
<g filter="url(#filter9_f_16_34)">
<path d="M799 389L800.08 394.109L803 396L800.08 397.891L799 403L797.92 397.891L795 396L797.92 394.109L799 389Z" fill="white"/>
</g>
<path d="M668.953 272L673.373 285.323L685.317 290.253L673.373 295.183L668.953 308.506L664.533 295.183L652.588 290.253L664.533 285.323L668.953 272Z" fill="white"/>
<path d="M906.87 464.6L911.63 479.301L924.493 484.741L911.63 490.181L906.87 504.882L902.11 490.181L889.246 484.741L902.11 479.301L906.87 464.6Z" fill="white"/>
<path d="M690.352 465.859L693.752 475.966L702.941 479.706L693.752 483.446L690.352 493.553L686.953 483.446L677.764 479.706L686.953 475.966L690.352 465.859Z" fill="#FFDF37"/>
<path d="M731.894 304.729L735.974 316.674L746.999 321.094L735.974 325.514L731.894 337.459L727.814 325.514L716.788 321.094L727.814 316.674L731.894 304.729Z" fill="#FFDF37"/>
<g filter="url(#filter10_f_16_34)">
<ellipse cx="797" cy="497" rx="141" ry="42" fill="#FFE600"/>
</g>
</g>
<defs>
<filter id="filter0_f_16_34" x="66" y="-116" width="1474" height="1474" filterUnits="userSpaceOnUse" color-interpolation-filters="sRGB">
<feFlood flood-opacity="0" result="BackgroundImageFix"/>
<feBlend mode="normal" in="SourceGraphic" in2="BackgroundImageFix" result="shape"/>
<feGaussianBlur stdDeviation="100" result="effect1_foregroundBlur_16_34"/>
</filter>
<filter id="filter1_i_16_34" x="402" y="220" width="802" height="802" filterUnits="userSpaceOnUse" color-interpolation-filters="sRGB">
<feFlood flood-opacity="0" result="BackgroundImageFix"/>
<feBlend mode="normal" in="SourceGraphic" in2="BackgroundImageFix" result="shape"/>
<feColorMatrix in="SourceAlpha" type="matrix" values="0 0 0 0 0 0 0 0 0 0 0 0 0 0 0 0 0 0 127 0" result="hardAlpha"/>
<feOffset dy="10"/>
<feComposite in2="hardAlpha" operator="arithmetic" k2="-1" k3="1"/>
<feColorMatrix type="matrix" values="0 0 0 0 0.180469 0 0 0 0 0.147656 0 0 0 0 0.1875 0 0 0 0.2 0"/>
<feBlend mode="normal" in2="shape" result="effect1_innerShadow_16_34"/>
</filter>
<filter id="filter2_d_16_34" x="560.197" y="596.087" width="476.606" height="349.635" filterUnits="userSpaceOnUse" color-interpolation-filters="sRGB">
<feFlood flood-opacity="0" result="BackgroundImageFix"/>
<feColorMatrix in="SourceAlpha" type="matrix" values="0 0 0 0 0 0 0 0 0 0 0 0 0 0 0 0 0 0 127 0" result="hardAlpha"/>
<feOffset dy="8"/>
<feComposite in2="hardAlpha" operator="out"/>
<feColorMatrix type="matrix" values="0 0 0 0 0.180392 0 0 0 0 0.368627 0 0 0 0 0.768627 0 0 0 1 0"/>
<feBlend mode="normal" in2="BackgroundImageFix" result="effect1_dropShadow_16_34"/>
<feBlend mode="normal" in="SourceGraphic" in2="effect1_dropShadow_16_34" result="shape"/>
</filter>
<filter id="filter3_i_16_34" x="560.163" y="552" width="477.674" height="387.764" filterUnits="userSpaceOnUse" color-interpolation-filters="sRGB">
<feFlood flood-opacity="0" result="BackgroundImageFix"/>
<feBlend mode="normal" in="SourceGraphic" in2="BackgroundImageFix" result="shape"/>
<feColorMatrix in="SourceAlpha" type="matrix" values="0 0 0 0 0 0 0 0 0 0 0 0 0 0 0 0 0 0 127 0" result="hardAlpha"/>
<feOffset dy="2"/>
<feGaussianBlur stdDeviation="2.5"/>
<feComposite in2="hardAlpha" operator="arithmetic" k2="-1" k3="1"/>
<feColorMatrix type="matrix" values="0 0 0 0 0.180392 0 0 0 0 0.368627 0 0 0 0 0.768627 0 0 0 1 0"/>
<feBlend mode="normal" in2="shape" result="effect1_innerShadow_16_34"/>
</filter>
<filter id="filter4_d_16_34" x="546.48" y="562.047" width="43.9165" height="42.1584" filterUnits="userSpaceOnUse" color-interpolation-filters="sRGB">
<feFlood flood-opacity="0" result="BackgroundImageFix"/>
<feColorMatrix in="SourceAlpha" type="matrix" values="0 0 0 0 0 0 0 0 0 0 0 0 0 0 0 0 0 0 127 0" result="hardAlpha"/>
<feOffset dy="2"/>
<feGaussianBlur stdDeviation="2"/>
<feComposite in2="hardAlpha" operator="out"/>
<feColorMatrix type="matrix" values="0 0 0 0 0.592157 0 0 0 0 0.219608 0 0 0 0 0.258824 0 0 0 0.7 0"/>
<feBlend mode="normal" in2="BackgroundImageFix" result="effect1_dropShadow_16_34"/>
<feBlend mode="normal" in="SourceGraphic" in2="effect1_dropShadow_16_34" result="shape"/>
</filter>
<filter id="filter5_d_16_34" x="1009.73" y="562.047" width="43.9163" height="42.1584" filterUnits="userSpaceOnUse" color-interpolation-filters="sRGB">
<feFlood flood-opacity="0" result="BackgroundImageFix"/>
<feColorMatrix in="SourceAlpha" type="matrix" values="0 0 0 0 0 0 0 0 0 0 0 0 0 0 0 0 0 0 127 0" result="hardAlpha"/>
<feOffset dy="2"/>
<feGaussianBlur stdDeviation="2"/>
<feComposite in2="hardAlpha" operator="out"/>
<feColorMatrix type="matrix" values="0 0 0 0 0.592157 0 0 0 0 0.219608 0 0 0 0 0.258824 0 0 0 0.7 0"/>
<feBlend mode="normal" in2="BackgroundImageFix" result="effect1_dropShadow_16_34"/>
<feBlend mode="normal" in="SourceGraphic" in2="effect1_dropShadow_16_34" result="shape"/>
</filter>
<filter id="filter6_d_16_34" x="711.572" y="714" width="57.8508" height="5.72253" filterUnits="userSpaceOnUse" color-interpolation-filters="sRGB">
<feFlood flood-opacity="0" result="BackgroundImageFix"/>
<feColorMatrix in="SourceAlpha" type="matrix" values="0 0 0 0 0 0 0 0 0 0 0 0 0 0 0 0 0 0 127 0" result="hardAlpha"/>
<feOffset dy="1"/>
<feComposite in2="hardAlpha" operator="out"/>
<feColorMatrix type="matrix" values="0 0 0 0 0.866667 0 0 0 0 0.653023 0 0 0 0 0 0 0 0 1 0"/>
<feBlend mode="normal" in2="BackgroundImageFix" result="effect1_dropShadow_16_34"/>
<feBlend mode="normal" in="SourceGraphic" in2="effect1_dropShadow_16_34" result="shape"/>
</filter>
<filter id="filter7_f_16_34" x="777.79" y="385.585" width="43.1162" height="57.3121" filterUnits="userSpaceOnUse" color-interpolation-filters="sRGB">
<feFlood flood-opacity="0" result="BackgroundImageFix"/>
<feBlend mode="normal" in="SourceGraphic" in2="BackgroundImageFix" result="shape"/>
<feGaussianBlur stdDeviation="2" result="effect1_foregroundBlur_16_34"/>
</filter>
<filter id="filter8_d_16_34" x="722.536" y="454.902" width="153.029" height="25.4613" filterUnits="userSpaceOnUse" color-interpolation-filters="sRGB">
<feFlood flood-opacity="0" result="BackgroundImageFix"/>
<feColorMatrix in="SourceAlpha" type="matrix" values="0 0 0 0 0 0 0 0 0 0 0 0 0 0 0 0 0 0 127 0" result="hardAlpha"/>
<feOffset dy="4"/>
<feComposite in2="hardAlpha" operator="out"/>
<feColorMatrix type="matrix" values="0 0 0 0 1 0 0 0 0 0.87451 0 0 0 0 0.615686 0 0 0 1 0"/>
<feBlend mode="normal" in2="BackgroundImageFix" result="effect1_dropShadow_16_34"/>
<feBlend mode="normal" in="SourceGraphic" in2="effect1_dropShadow_16_34" result="shape"/>
</filter>
<filter id="filter9_f_16_34" x="793" y="387" width="12" height="18" filterUnits="userSpaceOnUse" color-interpolation-filters="sRGB">
<feFlood flood-opacity="0" result="BackgroundImageFix"/>
<feBlend mode="normal" in="SourceGraphic" in2="BackgroundImageFix" result="shape"/>
<feGaussianBlur stdDeviation="1" result="effect1_foregroundBlur_16_34"/>
</filter>
<filter id="filter10_f_16_34" x="536" y="335" width="522" height="324" filterUnits="userSpaceOnUse" color-interpolation-filters="sRGB">
<feFlood flood-opacity="0" result="BackgroundImageFix"/>
<feBlend mode="normal" in="SourceGraphic" in2="BackgroundImageFix" result="shape"/>
<feGaussianBlur stdDeviation="60" result="effect1_foregroundBlur_16_34"/>
</filter>
<linearGradient id="paint0_linear_16_34" x1="799.5" y1="9" x2="799.5" y2="621" gradientUnits="userSpaceOnUse">
<stop stop-color="#FED402" stop-opacity="0"/>
<stop offset="1" stop-color="#FED402" stop-opacity="0.1"/>
</linearGradient>
<linearGradient id="paint1_linear_16_34" x1="799.5" y1="1195" x2="799.5" y2="583" gradientUnits="userSpaceOnUse">
<stop stop-color="#FED402" stop-opacity="0"/>
<stop offset="1" stop-color="#FED402" stop-opacity="0.1"/>
</linearGradient>
<linearGradient id="paint2_linear_16_34" x1="1493.5" y1="602" x2="780.5" y2="602" gradientUnits="userSpaceOnUse">
<stop stop-color="#FED402" stop-opacity="0"/>
<stop offset="1" stop-color="#FED402" stop-opacity="0.1"/>
</linearGradient>
<linearGradient id="paint3_linear_16_34" x1="35.5" y1="602" x2="818.5" y2="602" gradientUnits="userSpaceOnUse">
<stop stop-color="#FED402" stop-opacity="0"/>
<stop offset="1" stop-color="#FED402" stop-opacity="0.1"/>
</linearGradient>
<linearGradient id="paint4_linear_16_34" x1="1144.5" y1="1206.49" x2="788" y2="589.01" gradientUnits="userSpaceOnUse">
<stop stop-color="#FED402" stop-opacity="0"/>
<stop offset="1" stop-color="#FED402" stop-opacity="0.1"/>
</linearGradient>
<linearGradient id="paint5_linear_16_34" x1="371.956" y1="-56.1793" x2="763.456" y2="621.918" gradientUnits="userSpaceOnUse">
<stop stop-color="#FED402" stop-opacity="0"/>
<stop offset="1" stop-color="#FED402" stop-opacity="0.1"/>
</linearGradient>
<linearGradient id="paint6_linear_16_34" x1="1399.99" y1="951" x2="782.51" y2="594.5" gradientUnits="userSpaceOnUse">
<stop stop-color="#FED402" stop-opacity="0"/>
<stop offset="1" stop-color="#FED402" stop-opacity="0.1"/>
</linearGradient>
<linearGradient id="paint7_linear_16_34" x1="93.7763" y1="222" x2="771.874" y2="613.5" gradientUnits="userSpaceOnUse">
<stop stop-color="#FED402" stop-opacity="0"/>
<stop offset="1" stop-color="#FED402" stop-opacity="0.1"/>
</linearGradient>
<linearGradient id="paint8_linear_16_34" x1="446.5" y1="1206.49" x2="803" y2="589.01" gradientUnits="userSpaceOnUse">
<stop stop-color="#FED402" stop-opacity="0"/>
<stop offset="1" stop-color="#FED402" stop-opacity="0.1"/>
</linearGradient>
<linearGradient id="paint9_linear_16_34" x1="1216.7" y1="-56.1793" x2="825.198" y2="621.918" gradientUnits="userSpaceOnUse">
<stop stop-color="#FED402" stop-opacity="0"/>
<stop offset="1" stop-color="#FED402" stop-opacity="0.1"/>
</linearGradient>
<linearGradient id="paint10_linear_16_34" x1="191.014" y1="951" x2="808.49" y2="594.5" gradientUnits="userSpaceOnUse">
<stop stop-color="#FED402" stop-opacity="0"/>
<stop offset="1" stop-color="#FED402" stop-opacity="0.1"/>
</linearGradient>
<linearGradient id="paint11_linear_16_34" x1="1494.88" y1="222" x2="816.78" y2="613.5" gradientUnits="userSpaceOnUse">
<stop stop-color="#FED402" stop-opacity="0"/>
<stop offset="1" stop-color="#FED402" stop-opacity="0.1"/>
</linearGradient>
<linearGradient id="paint12_linear_16_34" x1="886.5" y1="1035" x2="886.5" y2="1076" gradientUnits="userSpaceOnUse">
<stop stop-color="#82C8EC"/>
<stop offset="1" stop-color="#82C8EC" stop-opacity="0"/>
</linearGradient>
<linearGradient id="paint13_linear_16_34" x1="694.294" y1="392.217" x2="599.253" y2="556.833" gradientUnits="userSpaceOnUse">
<stop stop-color="#39B364"/>
<stop offset="1" stop-color="#216F3D"/>
</linearGradient>
<linearGradient id="paint14_linear_16_34" x1="906.406" y1="392.217" x2="1001.45" y2="556.833" gradientUnits="userSpaceOnUse">
<stop stop-color="#39B364"/>
<stop offset="1" stop-color="#216F3D"/>
</linearGradient>
<radialGradient id="paint15_angular_16_34" cx="0" cy="0" r="1" gradientUnits="userSpaceOnUse" gradientTransform="translate(568.438 582.929) rotate(90) scale(18.8823)">
<stop offset="0.100798" stop-color="#FFE70D"/>
<stop offset="0.100853" stop-color="#FFD02F"/>
<stop offset="0.299723" stop-color="#FFF61D"/>
<stop offset="0.299757" stop-color="#FFB82F"/>
<stop offset="0.499698" stop-color="#FFC417"/>
<stop offset="0.5" stop-color="#FFE70D"/>
<stop offset="0.700423" stop-color="#FFB800"/>
<stop offset="0.70045" stop-color="#FFE70D"/>
<stop offset="0.899692" stop-color="#FFD02F"/>
<stop offset="0.899983" stop-color="#FFE70D"/>
</radialGradient>
<radialGradient id="paint16_angular_16_34" cx="0" cy="0" r="1" gradientUnits="userSpaceOnUse" gradientTransform="translate(1031.68 582.929) rotate(90) scale(18.8823)">
<stop offset="0.100798" stop-color="#FFE70D"/>
<stop offset="0.100853" stop-color="#FFD02F"/>
<stop offset="0.299723" stop-color="#FFF61D"/>
<stop offset="0.299757" stop-color="#FFB82F"/>
<stop offset="0.499698" stop-color="#FFC417"/>
<stop offset="0.5" stop-color="#FFE70D"/>
<stop offset="0.700423" stop-color="#FFB800"/>
<stop offset="0.70045" stop-color="#FFE70D"/>
<stop offset="0.899692" stop-color="#FFD02F"/>
<stop offset="0.899983" stop-color="#FFE70D"/>
</radialGradient>
<linearGradient id="paint17_linear_16_34" x1="801.033" y1="368.413" x2="801.033" y2="438.718" gradientUnits="userSpaceOnUse">
<stop stop-color="#E57750"/>
<stop offset="1" stop-color="#CB2244"/>
</linearGradient>
<linearGradient id="paint18_linear_16_34" x1="36.9322" y1="0" x2="36.9322" y2="70.3047" gradientUnits="userSpaceOnUse">
<stop stop-color="#E57750"/>
<stop offset="1" stop-color="#CB2244"/>
</linearGradient>
<linearGradient id="paint19_linear_16_34" x1="799.05" y1="336.398" x2="799.05" y2="453.036" gradientUnits="userSpaceOnUse">
<stop stop-color="#FFE17A"/>
<stop offset="1" stop-color="#FE9902"/>
</linearGradient>
<linearGradient id="paint20_linear_16_34" x1="811.414" y1="336.398" x2="811.414" y2="400.782" gradientUnits="userSpaceOnUse">
<stop stop-color="#FFFCEF"/>
<stop offset="1" stop-color="#FED402" stop-opacity="0"/>
</linearGradient>
<linearGradient id="paint21_linear_16_34" x1="779.455" y1="464.37" x2="745.863" y2="464.37" gradientUnits="userSpaceOnUse">
<stop stop-color="#FFD173"/>
<stop offset="1" stop-color="#FFD173" stop-opacity="0"/>
</linearGradient>
<linearGradient id="paint22_linear_16_34" x1="33.5916" y1="9.46823" x2="3.03954e-08" y2="9.46823" gradientUnits="userSpaceOnUse">
<stop stop-color="#FFA825"/>
<stop offset="1" stop-color="#FFD173" stop-opacity="0"/>
</linearGradient>
<linearGradient id="paint23_linear_16_34" x1="768.258" y1="421.258" x2="737.465" y2="421.258" gradientUnits="userSpaceOnUse">
<stop stop-color="#FFC144"/>
<stop offset="1" stop-color="#FFC144" stop-opacity="0"/>
</linearGradient>
<linearGradient id="paint24_linear_16_34" x1="32.6585" y1="21.4095" x2="1.8662" y2="21.4095" gradientUnits="userSpaceOnUse">
<stop stop-color="#FFC144"/>
<stop offset="1" stop-color="#FFC144" stop-opacity="0"/>
</linearGradient>
<clipPath id="clip0_16_34">
<rect width="1600" height="1200" fill="white"/>
</clipPath>
</defs>
</svg>
